<?xml version="1.0" encoding="UTF-8"?><svg xmlns="http://www.w3.org/2000/svg" viewBox="0 0 179.65 179.42"><defs><style>.d{fill:#fff;}</style></defs><g id="a"/><g id="b"><g id="c"><path class="d" d="M18.43,.28c5.39-.59,9.91,2.23,13.94,6.31,17.78,18,35.67,35.9,53.31,54.03,3.24,3.33,5.15,3.15,8.29-.06,17.79-18.22,35.76-36.28,53.73-54.33,5.94-5.97,14.78-7.83,21.51-4.79,10.8,4.89,14.07,19.37,5.76,28.15-10.98,11.6-22.53,22.67-33.87,33.93-7.68,7.63-15.31,15.3-23.15,22.75-2.78,2.64-2.36,4.25,.22,6.78,18.44,18.05,36.72,36.25,55.06,54.41,3.81,3.77,6.1,8.14,6.13,13.7,.03,7.6-3.01,13.26-9.99,16.37-7.44,3.32-14.53,2.28-20.31-3.43-14.93-14.74-29.63-29.71-44.42-44.59-3.52-3.54-7.28-6.88-10.53-10.65-3.11-3.62-5.3-3.59-8.7-.1-17.66,18.12-35.59,35.98-53.37,53.99-3.66,3.71-7.87,6.14-13.09,6.5-7.29,.5-13.81-3.2-16.83-9.41-3.44-7.05-2.75-14.99,2.57-20.46,11.01-11.35,22.3-22.43,33.52-33.58,7.91-7.86,15.82-15.72,23.9-23.41,3.1-2.95,.91-4.53-1-6.43C42.79,67.77,24.51,49.55,6.17,31.39,1.44,26.71-.63,21.16,.29,14.64,1.54,5.76,8.3,.33,18.43,.28Z"/></g></g></svg>