<?xml version="1.0" encoding="UTF-8"?><svg xmlns="http://www.w3.org/2000/svg" viewBox="0 0 287.02 288.2"><g id="a"/><g id="b"><g id="c"><g><path d="M143.44,288.2c-39.22-1.1-72.93-14.99-100.62-42.08C19.02,222.84,4.72,194.25,1.19,160.77,.57,154.99,0,149.17,0,143.36c0-10.15,7.39-17.19,17.5-17.22,10-.04,16.94,7.17,17.38,17.31,2.06,47.31,23.45,82.73,67.79,100.49,40.57,16.25,79.24,9.77,112.9-19.18,24.91-21.42,35.58-49.54,36.6-81.8,.31-9.75,7.53-16.86,17.35-16.83,9.93,.03,17.5,6.96,17.5,16.72,0,37.21-12.43,69.81-37.33,97.46-19.22,21.34-42.94,35.73-70.85,42.46-11.56,2.79-23.59,3.67-35.41,5.42Z"/><path d="M125.53,136.31c.2-3.66,.43-5.92,.43-8.19,.04-36.84,0-73.68,.12-110.52,.03-9.02,4.76-14.77,13.25-16.99,10.9-2.85,21.47,4.68,21.54,15.98,.22,37.34,.14,74.68,.2,112.02,0,2.1,.22,4.2,.41,7.59,2.3-2.07,3.76-3.27,5.08-4.6,8.69-8.75,17.3-17.59,26.04-26.29,5.49-5.47,12.01-7.77,19.63-5.19,10.78,3.66,15.25,16.51,9.12,26.14-1.24,1.95-2.79,3.75-4.42,5.39-19.53,19.6-39.09,39.18-58.68,58.72-9.28,9.25-20.18,9.25-29.47,0-19.6-19.54-39.2-39.07-58.64-58.77-2.61-2.64-5.05-5.97-6.2-9.43-2.6-7.86,.47-16.34,6.36-19.96,7.75-4.77,16.41-4.2,23.01,2.15,8.76,8.44,17.17,17.23,25.76,25.85,1.74,1.75,3.59,3.4,6.47,6.11Z"/></g></g></g></svg>