<?xml version="1.0" encoding="UTF-8"?><svg xmlns="http://www.w3.org/2000/svg" viewBox="0 0 520.48 520.48">
    <defs>
        <style>
            .d {
                fill: #fcc92c;
            }

            .e {
                fill: #ffff;
            }

            .f {
                fill: #fcbe00;
            }

            .g {
                fill: #8fcb1c;
            }

            .h {
                fill: #00b34b;
            }

            .i {
                fill: #00954b;
            }

            .j {
                fill: #fed92d;
            }

            .k {
                fill: #feac50;
            }

            .l {
                fill: #fe9621;
            }
        </style>
    </defs>
    <g id="a" />
    <g id="b">
        <g id="c">
            <g>
                <rect class="e" width="520.48" height="520.48" rx="250" ry="250" />
                <g>
                    <path class="l"
                        d="M129.6,390.67c-13.75-13.01-24.53-28.23-33.37-44.87-10.99-20.72-17.37-42.84-20.03-66.07-.1-.85,.29-1.96-.92-2.43v-6.48c.67-1.89,.67-3.78,0-5.67v-4.86c2.1-1.73,4.62-1.27,7.01-1.28,26.9-.03,53.81-.02,80.71-.02,4.21,0,8.73,.86,10.98-4.22-.73,17.36,2.69,33.73,11.51,48.87,3.83,6.57,8.69,12.31,13.68,17.98-.32,1.27-1.39,1.95-2.24,2.79-21.08,21.04-42.15,42.09-63.25,63.1-1.22,1.21-2.21,2.77-4.09,3.14Z" />
                    <path class="f"
                        d="M173.98,254.78c-.18,.63-.57,1.29-.49,1.88,.46,3.26-1.24,3.71-4.03,3.69-15.36-.11-30.72-.05-46.08-.05-16.03,0-32.07,0-48.1,0v-2.43c.67-1.89,.67-3.78,0-5.67v-8.1c2.12-5.82,2-12.03,3.17-18.02,7.22-36.84,23.85-68.69,50.4-95.33,2.61-1.19,3.62,1.14,4.91,2.42,11.13,10.99,22.17,22.06,33.24,33.11,9.73,9.71,19.48,19.41,29.17,29.16,1.16,1.17,2.97,2.09,2.51,4.26-11.68,12.56-19.96,26.92-23.14,43.93-.69,3.69-1.06,7.43-1.58,11.15Z" />
                    <path class="d" d="M75.28,252.2c1.31,1.89,1.23,3.78,0,5.67v-5.67Z" />
                    <path class="k" d="M75.28,265.15c1.24,1.89,1.33,3.78,0,5.67v-5.67Z" />
                    <path class="i"
                        d="M321.83,320.91c10.79-11.87,18.78-25.22,22.33-41.04,1.22-5.44,1.81-10.9,1.54-16.45-.1-2.19,.64-2.92,2.91-3.25,31.01-4.43,62-8.99,92.99-13.54,2.1-.31,3.42-.42,3.5,2.56,1.1,40.26-7.74,77.84-30.02,111.81-7.04,10.73-14.88,20.83-24.35,29.59-1.98,.36-2.89-1.23-3.97-2.31-20.95-20.86-41.89-41.74-62.78-62.67-1.24-1.24-3.24-2.32-2.15-4.71Z" />
                    <path class="j"
                        d="M198.7,199.7c-.87-1.02-1.68-2.1-2.62-3.05-21.1-21.09-42.21-42.16-63.35-63.22-1.11-1.11-1.99-2.64-3.87-2.68,18.17-18.64,39.51-32.48,63.68-42.09,25.26-10.05,51.6-13.38,78.6-12.89,3.29,.06,3.1,1.64,2.78,3.81-2.73,18.66-5.45,37.32-8.18,55.98-1.6,10.93-3.39,21.83-4.69,32.8-.53,4.45-2.31,5.94-6.75,6.21-14.39,.9-27.77,5.22-40.04,12.9-5.64,3.53-10.61,7.87-15.57,12.24Z" />
                    <path class="g"
                        d="M129.6,390.67c18.34-18.38,36.64-36.8,55.05-55.11,4.75-4.73,9.09-9.9,14.52-13.93,10.05,9.16,21.18,16.46,34.27,20.68,9.61,3.09,19.42,4.23,29.45,4.16-1.23,2.77-1.37,5.69-1.36,8.68,.03,27.56,.03,55.12,0,82.68,0,2.36,.53,4.89-1.33,6.93-31.41,.16-60.91-7.35-88.46-22.33-15.61-8.48-29.87-18.82-42.13-31.76Z" />
                    <path class="h"
                        d="M260.19,444.76c0-31.35,.02-62.71-.02-94.06,0-2.14-.09-4.04,2.73-4.22,22.99-.82,42.42-9.85,58.94-25.56,.05,1.51,1.14,2.38,2.09,3.32,21.75,21.71,43.49,43.41,65.25,65.11,.47,.47,1.04,.84,1.57,1.26-12.06,12.75-26.06,22.99-41.38,31.41-27.73,15.25-57.46,22.9-89.16,22.74Z" />
                </g>
                <circle cx="360.59" cy="159.32" r="50.31" fill="#000000" />
            </g>
        </g>
    </g>
</svg>