<svg xmlns="http://www.w3.org/2000/svg" viewBox="0 0 361.08 361.08"><defs><style>.cls-1{fill:#272459;}.cls-2{fill:#dfae4a;}.cls-3{fill:#dc5974;}.cls-4{fill:#efda62;}.cls-5{fill:#b52e6f;}.cls-6{fill:#5840c5;}</style></defs><g id="Layer_2" data-name="Layer 2"><g id="OBJECTS"><rect class="cls-1" width="361.08" height="361.08" rx="49.84"/><path class="cls-2" d="M181,307.68c-1.44,0-2.36-1-3.39-1.76Q121.44,265.41,65.3,224.86c-1.3-.94-3-1.66-2.26-3.85,1.5-.77,2-2.28,2.66-3.65,4.17-8.73,8.28-17.5,12.46-26.22Q98,149.79,117.88,108.47c1.84-3.81,3.2-7.9,6.07-11.16,1.12.65,2.3,1.2,3.35,2q23.43,16.86,46.83,33.79c2.38,1.73,5,3.21,6.88,5.53Z"/><path class="cls-3" d="M181,138.58c-1.9-2.32-4.5-3.8-6.88-5.53q-23.37-17-46.83-33.79A38.37,38.37,0,0,0,124,97.32c0-.4-.09-.8-.13-1.19,4.79-10,9.63-20,14.32-30.09,1.11-2.37,2.13-2.19,4-.85q56.57,40.88,113.2,81.66c1.56,1.12,2.29,2.21,1.36,4.12q-7.4,15.14-14.71,30.29a25.69,25.69,0,0,1-3.11-1.67c-13.92-10-27.75-20.2-41.77-30.08C191.8,145.78,187.14,141.09,181,138.58Z"/><path class="cls-4" d="M123.82,96.13c0,.39.09.79.13,1.19-2.87,3.25-4.23,7.34-6.07,11.15q-19.93,41.29-39.72,82.67c-4.18,8.72-8.29,17.49-12.46,26.22-.65,1.37-1.16,2.88-2.66,3.65,0-3.31-.1-6.61-.11-9.92V57.6c0-1,0-1.89,0-2.84,0-1.4.63-1.7,1.76-1s1.93,1.37,2.89,2.06l53.23,38.41C121.78,95,122.82,95.51,123.82,96.13Z"/><path class="cls-5" d="M181,138.58c6.13,2.51,10.79,7.2,16.08,10.93,14,9.88,27.85,20.05,41.77,30.08a25.69,25.69,0,0,0,3.11,1.67.64.64,0,0,1,.05.39,27.81,27.81,0,0,0-1.66,2.69Q215.57,236,190.85,287.6c-3.14,6.6-7,12.88-9.11,19.95l-.73.13Z"/><path class="cls-6" d="M181.74,307.55c2.11-7.07,6-13.35,9.11-19.95q24.65-51.68,49.51-103.26a27.81,27.81,0,0,1,1.66-2.69q26.86,19.46,53.74,38.94c3.29,2.38,3.3,2.64.08,5q-56,40.41-112,80.79A21.39,21.39,0,0,1,181.74,307.55Z"/></g></g></svg>