<svg xmlns="http://www.w3.org/2000/svg" xmlns:xlink="http://www.w3.org/1999/xlink" viewBox="0 0 518.64 420.52"><defs><style>.cls-1{fill:none;}.cls-2{fill:#fff;}.cls-3{clip-path:url(#clip-path);}.cls-4{fill:#a5e6e2;}.cls-5{fill:#acf0ec;}.cls-6{fill:#00abe8;}.cls-7{fill:#0096cb;}.cls-8{fill:#eefaff;}.cls-9{fill:#c2e2ff;}.cls-10{fill:#d9f5ff;}.cls-11{fill:#a9c5de;}.cls-12{fill:#b5dcff;}.cls-13{fill:#99d3ff;}.cls-14{fill:#13bcf7;}.cls-15{fill:#33caff;}.cls-16{fill:#4eb064;}.cls-17{fill:#419556;}.cls-18{fill:#ffb657;}.cls-19{fill:#ffe294;}.cls-20{fill:#00451e;}.cls-21{fill:#003c14;}.cls-22{fill:#003617;}.cls-23{fill:#002b12;}.cls-24{fill:#00640a;}.cls-25{fill:#006341;}.cls-26{fill:#156900;}.cls-27{fill:#006918;}.cls-28{fill:#ffd457;}.cls-29{fill:#ffd96b;}.cls-30{fill:#ffa22b;}.cls-31{fill:#ffc82b;}.cls-32{fill:#3d657a;}.cls-33{fill:#007229;}.cls-34{fill:#2f8043;}.cls-35{fill:#3d8c51;}.cls-36{fill:#54bf6e;}.cls-37{fill:#48a660;}.cls-38{fill:#606200;}.cls-39{fill:#ffead6;}.cls-40{fill:#c42f06;}</style><clipPath id="clip-path"><rect class="cls-1" x="21.98" y="22" width="474.67" height="376.52"/></clipPath></defs><g id="Layer_2" data-name="Layer 2"><g id="OBJECTS"><rect class="cls-2" x="49.06" y="-49.06" width="420.52" height="518.64" transform="translate(469.58 -49.06) rotate(90)"/><g class="cls-3"><rect class="cls-4" x="22.49" y="22" width="474.64" height="240.65"/><path class="cls-5" d="M22.49,128.77c40.25,18.21,61.68-9.69,96.23-4.44s51.45,3,79.28,12.24,69.55,10.89,78.87-10.82,93.57-21.94,112.39-2.09S445,153,467.17,135.75s30.37-22.5,30.37-22.5v149.4H22.48Z"/><path class="cls-6" d="M41.45,151.62c26.07,21,43.73,23,60.27,10.94s12.94-22.27,44.45-16.6l-9.69-29.87Z"/><path class="cls-6" d="M163.49,136.36c4.49,10.31-8.66,18.48-17.6,13.64a32.33,32.33,0,0,0-11.82-4c-7.27-1.24-15.73-2.1-21.06,3-3.16,3-4.42,7.45-6.87,11.06-7.54,11.72-26.38,11.07-33.09-1.15l49.51-42.83Z"/><path class="cls-7" d="M394,26.63c-2.89,1.68-6.46,1.58-9.78,1.21s-6.74-.94-10-.06a13,13,0,0,0-7.21,5.4,17.55,17.55,0,0,0-2.73,8.68c-.17,3.08.41,6.37,2.44,8.7,2.6,3,6.9,3.76,10.84,4.34Z"/><path class="cls-8" d="M497.54,113.25c-4.67,5.62-10,6.27-15.86,5.17s-11.39-3.82-17.28-4.88c-13.46-2.43-28.08,5.08-33.95,17.43-1.25,2.62-2.13,5.71-1,8.4.77,1.86,2.37,3.22,3.78,4.66,5.12,5.26,8.1,13.31,5.35,20.11-2.27,5.61-7.78,9.16-13.2,11.86s-11.25,5-15.33,9.49a12.49,12.49,0,0,0-3.5,7.17c-.23,2.7-.06,7.94,2.3,9.26-4.9,2.17-10.58,4-15.51,1.84-3.83-1.64-6.44-5.43-7.5-9.46a29.66,29.66,0,0,1,0-12.41,69.38,69.38,0,0,1,3.6-13.11c.95-2.45,2.05-4.91,2.27-7.53.86-10.39-11.8-17.56-12.65-27.95-.64-7.74,5.52-14.35,12-18.64s13.9-7.63,18.51-13.87c4.31-5.84,5.48-13.37,8.34-20.05,4-9.4,12.17-17.44,22.21-19.42,12.67-2.5,25.36,4.87,34.3,14.19,2.45,2.56,4.92,5.41,8.32,6.42a10.37,10.37,0,0,0,4.47.26c4.2-.66,7.92-3.79,10.4-8.61Z"/><path class="cls-9" d="M194.5,198.58c-.65,9.48-10.92,16-20.42,15.81-13.46.69-23.06-11.55-35.54-13.87C123.72,198.1,112.61,209,101,216.85c-22.55,14.4-57.16,12-78.51-4.13v-44.6c18.45.74,32.19,13.25,44.24,25.5,19.87,12.89,39.37-6,50.44-21.61,4.74-5.38,10.51-10.3,17.51-11.84,8.73-1.48,22.58.33,24.54-11.89l80.87-59.11,64.51-5.51c4.19,6.4,12,2.2,17.9,2.88,10,1.79,6.92,17.08,18.41,17.15,9.93,2.82,22.87-1.41,30.44,7.11,6.24,9.18-1.92,19.8-12.52,17.66-12-2-20.73-.63-28.57,8.76-10.16,12.18-37.55-16-56.18.32-11.78,10.29-3.36,17.9-23.28,28.33-6,3-13,3.17-19.64,4.45C204,175.52,225.57,194.52,194.5,198.58Z"/><path class="cls-10" d="M22.49,239.07c5.19-7.46,15.16-10.21,23.84-7.52s16.89,7.57,26,7.86c21.15.66,36.16-23.06,57.2-25.22,11-1.12,21.52,3.86,31.83,7.8s22.21,6.85,32.06,1.88c11.62-5.87,16-20.37,25.9-28.77a30.92,30.92,0,0,1,25.35-6.68c4.61.87,9.3,2.82,13.85,1.64,7.59-2,10.33-11,13.92-17.95C282,153.45,307,144.53,326.3,152.88c9.79,4.25,17.8,12.16,27.93,15.48,7.78,2.55,17.37,2.86,21.95,9.64,3.54,5.22,3.15,13.29,8.64,16.4V297.79H22.49Z"/><path class="cls-8" d="M377,206.36a43.22,43.22,0,0,0-16.47-17.51A31.75,31.75,0,0,0,337,185.44c-3.11.83-6.21,2.22-9.4,1.8-6-.78-9.31-7.31-14.11-11.05-6.73-5.26-16.79-4.65-24.09-.19S277.26,188,274,195.93c-1.56,3.79-2.86,7.8-5.44,11-9.16,11.34-28.43,6.79-39.95,15.72-7.46,5.78-9.91,15.8-11.87,25H378Z"/><path class="cls-10" d="M338.1,22c-3.3,8.5-11.74,11.24-16.56,19-5.33,8.56-3.37,19.72-6.37,29.34-4.71,15.08-21.27,24-37.06,24.56-5.31.21-10.77-.31-15.83,1.33s-9.68,6.33-9,11.61c.59,4.58,4.8,7.82,6.51,12.12,2.68,6.75-1.91,14.92-8.67,17.57s-14.69.6-20.53-3.72c-1.7-1.27-3.38-2.76-5.48-3.13-5.7-1-9,6.28-14.07,9.1-8.51,4.75-19.09-4.28-28.52-1.84-6.56,1.7-10.65,8.47-16.94,11-7.62,3-16.11-.88-23.18-5s-14.85-8.81-22.91-7.26c-10.52,2-16,13.35-24,20.54-10.53,9.53-26.55,11.75-40,7.08s-26.77-17.49-33-30.22V77.44A5.21,5.21,0,0,1,28,74.86c2.65.59,4.43,3.21,6.79,4.64a8.43,8.43,0,0,0,9.52-.65,23.77,23.77,0,0,1,2.52-2.1c2.2-1.32,4.92-.73,7.4-.23s5.33.75,7.23-1c2.18-2,2-5.62,2.62-8.64A13.5,13.5,0,0,1,72,57.13c3.93-1.56,11.24-1.69,14.62,1L201.35,21.94Z"/><path class="cls-8" d="M89.46,57.22C92.28,67.26,77.83,68.65,75,78c-2.39,7.72,3,16.15,10,20.2s15.41,4.73,23.49,4.81c4.92.06,10,0,14.58,1.68,5.27,2,9.38,6.12,13.24,10.21s7.8,8.35,12.93,10.67,11.81,2.19,15.7-1.87c2-2.08,3-4.88,4.52-7.33,4.54-7.35,13.28-11,21.78-12.54s17.26-1.27,25.71-3,17-6.1,20.82-13.86c2.18-4.45,2.56-9.55,2.6-14.51C240.4,66.84,240,61.17,238,56V38.64L88.43,40.76Z"/><path class="cls-11" d="M22.49,85.33c2.26-.09,6.23,1.34,8.15,2.54a25.06,25.06,0,0,0,6,3.22c4.11,1.24,8.54-.37,12.29-2.46s7.32-4.72,11.49-5.76,9.3.06,11.32,3.86c1.93,3.65.15,8.39-3,11.12s-7.24,3.92-11.22,5.07-8.1,2.41-11.14,5.22c-2.36,2.19-4,5.23-6.77,6.82-3,1.69-6.79,1.33-9.91-.08s-4.67-3.76-7.2-6.07Z"/><path class="cls-9" d="M360.07,67.71C351.88,63.8,351.21,58.07,352,54a12.91,12.91,0,0,1,7.31-9.3c6.55-2.92,15-.13,20.82-4.29,2.36-1.69,3.9-4.29,5.24-6.87a32.61,32.61,0,0,1,4.61-7.37c3.91-4.21,10.32-4.27,10.32-4.27h17.93V63.62l-27.43,12S372.94,73.87,360.07,67.71Z"/><path class="cls-10" d="M412.58,22C390,22.73,395,44,387.91,58.6c-6.13,8.35-20.33,14.19-30.64,11.14-8.31-3.15-12.72-12.44-15.65-18-14.36-19.87-3.69,64.39,52.92,34.26,13.32-5.47,20.47-17.78,29.07-28.44,10-11.87,26.05-10.37,32.38,4,2.77,5,5,10.44,8.87,14.61,8.06,8.25,22.33,10.79,32.27,0V22Z"/><path class="cls-6" d="M22.48,53.49a39.14,39.14,0,0,0,10.14,5.35c4.05,1.19,8.39,1.91,12.47.83,7.16-1.9,12.17-8.94,19.42-10.47,3.94-.82,8,.11,11.94,1.1a14.7,14.7,0,0,0,6,.66c2-.34,3.95-1.78,4.21-3.78L57.49,34.39l-35,6.17Z"/><path class="cls-9" d="M22.49,47.23a22.64,22.64,0,0,0,26.57,5.65c4.85-2.39,8.69-6.5,13.5-9s11.62-2.77,14.79,1.62C78.5,47.1,79,49,79.74,50.84a19,19,0,0,0,30.91,6.24c2-2,3.61-4.44,5.92-6.09,5.41-3.86,12.89-2.2,19.16,0s13.13,4.85,19.34,2.49c2.85-1.09,5.21-3.12,7.9-4.54,9.83-5.18,23.62-.17,27.81,10.12,1.7,4.16,2,8.81,3.69,13,3.59,8.61,13.95,13.75,23,11.4s16.44-11.31,25.9-10.81c3.79.19,7.36,1.94,11.14,2.26,6.42.54,12.58-3.08,19-2.89,3.16.09,6.22,1.09,9.35,1.51A25.64,25.64,0,0,0,307.37,62c4-6.42,4.9-14.22,6.72-21.56s5.22-15,12-18.4H22.49Z"/><path class="cls-8" d="M256.85,22.05c.51,4.94,1.91,11.73,4.55,15.94a21.76,21.76,0,0,0,11.35,9.23,21.11,21.11,0,0,0,13.79-.44,29.07,29.07,0,0,0,11.42-8c4.38-4.84,8.78-12.9,19.52-16.82Z"/><rect class="cls-1" x="22.49" y="22" width="474.64" height="376.52"/><path class="cls-11" d="M141.19,184c8.27,11.59,17.73,28.5,34.48,23.94,8.72-1.51,12.39-9.82,17.75-15.46,6.54-1.27,16.17-4.08,15.27-12.59-4.79-9.15-16.31-1.85-21.84,3a61.31,61.31,0,0,1-22.18,10.18C156.34,196.16,140.51,183.12,141.19,184Z"/><path class="cls-10" d="M136.09,185.56c4.5,5.71,9.83,1.1,15.13,6.08s10.18,10.8,16.92,13.52C172,206.74,177,207,180,204c3.22-3.22,2.88-8.86,6.14-12.06s8.45-2.57,12.87-3.56c8.18-1.83,14.21-10.48,13.1-18.79-.54-4-3.31-8.28-7.35-8.38-3.57-.08-6.29,3-8.65,5.67-3.26,3.72-6.88,7.24-11.27,9.52s-9.67,3.22-14.36,1.65-8.4-5.56-13-7.73a19.23,19.23,0,0,0-15.17-.51C137.51,171.69,132.87,181.47,136.09,185.56Z"/><path class="cls-12" d="M227.65,68.29c-7.25-5.24-7.14-15.84-10.55-24.11a30.54,30.54,0,0,0-18.52-16.82,37.24,37.24,0,0,0-25.25,1c-6.42,2.54-12.47,6.74-19.37,6.92-4.32.12-8.49-1.38-12.74-2.14a38.73,38.73,0,0,0-35,12c-3.48,3.88-6.38,8.65-11.15,10.79-4,1.79-8.44,1.29-12.49-.49a19,19,0,0,0,28.09,1.59c2-2,3.61-4.44,5.92-6.09,5.41-3.86,12.89-2.2,19.16,0s13.13,4.85,19.34,2.49c2.85-1.09,5.21-3.12,7.9-4.54,9.83-5.18,23.62-.17,27.81,10.12,1.7,4.16,2,8.81,3.69,13,3.59,8.61,13.95,13.75,23,11.4,6.59-1.72,12.21-6.8,18.36-9.34V72.23C233.08,70.91,230.1,70.06,227.65,68.29Z"/><path class="cls-12" d="M456,61.6c2.77,5,5,10.44,8.87,14.61,8.06,8.25,22.33,10.79,32.27,0V39.33c-2.05,3.39-11.6,18.38-21.45,20.87C464.55,63,459,34.71,437.21,49.58l.05.18C444.73,48.89,452.14,52.87,456,61.6Z"/><path class="cls-6" d="M22.49,287.83c5,3.34,11.89,1.18,17-2.07s9.83-7.57,15.77-8.67c6.42-1.2,12.81,1.64,19.19,3.05a45.57,45.57,0,0,0,38.69-9.54c3.89-3.3,7.26-7.28,11.62-9.91,13.22-8,31.62-1.59,44.73-9.75,7.36-4.57,12.19-13.29,20.56-15.51,4.38-1.15,9.06-.29,13.51-1.1,5.29-1,9.88-4.19,14.95-6,19.75-7,44.74,8.16,61.27-4.74,6.94-5.41,10.51-14.83,18.45-18.63,6.82-3.26,15.09-1.45,22.18-4,3.77-1.38,7.17-4,11.17-4.35,8.55-.77,14.65,8.71,23.05,10.45,12.24,2.53,21.86-11.78,34.28-13.2,9.62-1.11,19.39,5.78,28.6,2.75,8.5-2.79,12.32-12.63,19.3-18.23C447,170.14,462.67,172,473,163.88c3.88-3,6.69-7.26,10.51-10.37s9.46-5,13.63-2.34v154H22.49Z"/><path class="cls-13" d="M340.3,216.15c-4.74-3.48-9.58-7-15.15-8.92s-12.07-2-17,1.24c-3.24,2.12-5.59,5.5-9,7.23-1.74.87-3.71,1.29-5.32,2.39-3.76,2.56-4.39,7.8-6.87,11.62-2.33,3.6-6.3,5.87-10.39,7.15a47.87,47.87,0,0,0-6.59,2.15,8.06,8.06,0,0,0-4.55,5h78.47Z"/><path class="cls-14" d="M46.85,296.18a37.72,37.72,0,0,0,5.32-2.81c1.45-.92,2.81-1.87,4.12-2.79,3.07-2.14,6-4.17,8.52-4.64a8.68,8.68,0,0,1,1.58-.14c2.46,0,5.45.84,8.62,1.72,1.75.49,3.55,1,5.44,1.41a53.08,53.08,0,0,0,11.43,1.24A54.43,54.43,0,0,0,127,277.47c1.53-1.29,2.92-2.6,4.26-3.87a39.79,39.79,0,0,1,6.23-5.2c4.66-2.81,11.22-3.16,18.15-3.52,8.54-.46,18.22-1,26.8-6.29a56.56,56.56,0,0,0,9.56-8c3.14-3.08,5.85-5.74,8.6-6.46a23.67,23.67,0,0,1,5.19-.39,45.3,45.3,0,0,0,7.66-.56,44.11,44.11,0,0,0,11.47-4.2c1.74-.83,3.38-1.62,4.9-2.16a29.3,29.3,0,0,1,9.79-1.42,114.38,114.38,0,0,1,14.3,1.25,129.47,129.47,0,0,0,16,1.36c9.72,0,17.51-2.4,23.83-7.31a53.79,53.79,0,0,0,9.24-10c2.66-3.44,5-6.41,7.6-7.67,2.12-1,5.12-1.22,8.59-1.47a45.87,45.87,0,0,0,12.86-2.24,47.54,47.54,0,0,0,4.88-2.19,16.13,16.13,0,0,1,4-1.65h.18c1.57,0,4.25,1.86,6.85,3.66,3.73,2.58,8,5.52,13.46,6.65a23.71,23.71,0,0,0,4.75.49c8.29,0,15-4.27,20.92-8,4.16-2.64,8.08-5.14,11.53-5.53a10.84,10.84,0,0,1,1.16-.06,38.09,38.09,0,0,1,8.6,1.56,51.36,51.36,0,0,0,12.78,2.09,25.45,25.45,0,0,0,7.92-1.22c7.77-2.56,12.56-8.57,16.4-13.4a41.36,41.36,0,0,1,5.77-6.37c3.6-2.88,9-4.2,14.73-5.59,6.93-1.69,14.79-3.6,21.45-8.81a53.7,53.7,0,0,0,6.54-6.34c1.08-1.17,2.11-2.3,3.12-3.25v134.8Z"/><path class="cls-15" d="M497.13,186.67c-4.9.8-11.29-3.5-16.19-4.27-20.18-2.59-31.94,18.06-44.53,30.33-32.07,29.62-39.67-14.11-70.3,14.59-10.65,7.22-22.53,1.25-33.61-1-9.69,0-20.66-.59-28.92,9.37-2.36,2.84-6.89,11-7.38,14.67V275H497.13Z"/><path class="cls-13" d="M303.2,268V251A43.59,43.59,0,0,1,309,240.2c5.27-6.35,11.93-6.86,20.1-6.86h2.7c2,.42,4,1,6.19,1.55,5.26,1.42,10.7,2.88,16.46,2.88A26.94,26.94,0,0,0,370,233.12l.45-.31.41-.38c8-7.52,13.05-8.39,16.13-8.39,3.54,0,7,1.29,11,2.79,4.67,1.75,10,3.73,16.2,3.73h0c9,0,17.57-4,26.94-12.68l.13-.13c3-2.91,5.9-6.22,8.72-9.43,8.64-9.84,16.81-19.14,27.5-19.14a19.9,19.9,0,0,1,2.42.15,31.2,31.2,0,0,1,4.76,1.62c1.71.67,3.53,1.39,12.44,10v75.15Z"/><path class="cls-16" d="M22.49,297.79c22.59-8.31,45.45-16.76,69.51-16,10.92.36,22.15,2.6,32.57-.7,11.69-3.71,20.72-14,32.76-16.34,13.83-2.72,28.09,5.69,41.89,2.83,11.93-2.48,21-12.91,32.9-15.51,11.48-2.5,23.27,2.72,35,2.27,12.39-.47,23.73-7.19,36-9,18.15-2.63,35.86,5.68,52.63,13.08s35.6,14.19,53.06,8.58V309H22.49Z"/><path class="cls-17" d="M31.32,304.41c18.76-6.83,38.05-13.22,57.47-13.22,1,0,2,0,3,.05,2.6.09,5.23.29,8,.5,3.77.29,7.68.58,11.61.58a49.63,49.63,0,0,0,15.29-2.1c6.22-2,11.48-5.33,16.56-8.59,5.25-3.35,10.21-6.52,15.44-7.55a22.9,22.9,0,0,1,4.59-.42,71.15,71.15,0,0,1,13.51,1.85A82,82,0,0,0,193,277.64a37.37,37.37,0,0,0,7.62-.75c7.22-1.5,13.12-5.15,18.83-8.68,4.84-3,9.4-5.81,14.15-6.84a24.52,24.52,0,0,1,5.25-.52A76.29,76.29,0,0,1,251,262.23a87.48,87.48,0,0,0,14.63,1.6c.58,0,1.16,0,1.73,0,7.9-.3,15.08-2.7,22-5a87.26,87.26,0,0,1,14.73-4,42.41,42.41,0,0,1,6-.42c13.46,0,27.29,6.12,40.66,12l2.14.95c13.24,5.84,27.52,11.25,42.18,11.25a54.79,54.79,0,0,0,6.7-.41v26.25Z"/><path class="cls-18" d="M497.13,249.46c-3.5-.67-3.62-3.43-6.31-5.77-4.05-3.52-9.94-4.52-15.16-3.28A26.31,26.31,0,0,0,462.32,249c-3.48,4-6.1,8.8-10.24,12.11-8,6.44-20,5.88-28.28,12-8.64,6.37-11.44,18.57-20.13,24.88h93.46Z"/><path class="cls-19" d="M480.83,245.18c3.75,1.83,6.47,5.06,10.38,6.52a2,2,0,0,0,2.42-1.37c.78-5.68-4-9.89-8.69-12.19a4.18,4.18,0,0,0-5.58,1.46c-1,1.79-.52,4.61,1.47,5.58Z"/><path class="cls-20" d="M207.18,277.36c6.5-2,13.47-.33,20.14.94s14,2,19.87-1.45c4.17-2.49,6.91-6.78,10.6-9.93a20.7,20.7,0,0,1,12.68-5.08c14.35-.38,25.28,15.78,39.62,15.07,4.69-.23,9.07-2.29,13.55-3.7s9.62-2.1,13.7.23c1.34.77,2.51,1.84,3.92,2.49,5.43,2.47,11.46-2.17,17.43-2.21,6.14,0,11.15,4.72,15.2,9.34s15.95,14.84,29.78,15H207.18Z"/><path class="cls-21" d="M422.54,236.79c0-2.68-1.05-5.26-.23-7.81s2.16-4.92,2.94-7.48c1.63-5.36.76-11.12-.13-16.64-.95-5.94-2-12.14-5.66-16.92a7.73,7.73,0,0,0-2.71-2.41c-.75-.34-1.58-.49-2.32-.87-2-1-2.88-3.43-3.35-5.66s-.79-4.62-2.32-6.31c-.65-.72-1.48-1.26-2.17-1.95-2.68-2.73-2.5-7.09-2.13-10.9-2.89,3.73-5.83,7.55-7.37,12-2,5.75-1.51,12.13-3.59,17.84a5.52,5.52,0,0,1-2-5.34c-.69-.28-1.14.74-1.17,1.48a48.68,48.68,0,0,0,.7,11.05,18.65,18.65,0,0,1,.54,5.69c-.54,4.08-4.14,7.2-4.86,11.24-.54,3,.62,6.07,1.21,9.09a25.07,25.07,0,0,1,.36,7.13,10.83,10.83,0,0,1-1.52,5c-2.28,3.44-10.42,3.74-10.47-1.48,0-1.86.63-3.67.71-5.52.23-5-3.63-9.65-3.12-14.66-2.13,1.13-1.9,4.16-1.84,6.57.15,5.83-2.4,11.35-4.63,16.74s-4.24,11.29-2.94,17c.93,4.05,3.47,7.66,3.92,11.79.61,5.49-2.55,11.2-.65,16.39,1.55,4.24,6.17,6.7,10.66,7.19,3.28.35,12.08,1,18.26-6.59C403.86,273.63,423.22,288.32,422.54,236.79Z"/><path class="cls-22" d="M365.9,248.32a19.54,19.54,0,0,0-3.39,11.88c.09,4,.4,8.78,3.5,11.69,2.3,2.16,5.43,1,6.5-1.72,1.31-3.29.25-7.21.14-10.67A64.14,64.14,0,0,0,371.39,249c-.53-2.69-4.19-2.73-5.49-.72Z"/><path class="cls-22" d="M399.79,242.21a46.11,46.11,0,0,0-6.92,25.07c0,6.28,2.07,16.61,9.51,18,3.64.67,6.06-2,5.56-5.56-.39-2.7-2.23-4.75-3.1-7.32-1.09-3.21-.87-6.6-.6-9.93.55-7.08,1.24-12.78-.51-19.72a2.18,2.18,0,0,0-3.94-.52Z"/><path class="cls-23" d="M362.39,268.73c-2.56,4.54-.49,9.67,1.51,14.06s5.61,9.26,11,8.49c1.66-.23,2.86-2.2,2.86-3.75,0-3.6-3-5.91-4.87-8.72-1.7-2.53-4.32-6.26-4.76-9.33-.39-2.76-4.51-2.91-5.74-.75Z"/><path class="cls-24" d="M388.23,244.41a19.46,19.46,0,0,0-4.2,10.83c-.3,3.76.53,8.38,4,10.47,1.93,1.16,4,.26,5.26-1.38,1.91-2.54,1.45-6.61,1.74-9.64s1.07-6.18.53-9.32c-.65-3.78-5.5-3.41-7.31-1Z"/><path class="cls-20" d="M370.22,258.35c-1.86,6.71-2.52,18,4.31,22.36,2.9,1.87,6.74-1.22,5.79-4.45-1.75-5.89-3.75-11.92-5-17.91-.56-2.6-4.4-2.41-5.06,0Z"/><path class="cls-20" d="M384.66,269.16c-1.32,6.57.08,12.26,4.64,17.28,3.56,3.91,11.65,9.58,16.89,5.64a4.14,4.14,0,0,0,1.84-4.5c-1.29-4.15-5.74-5.6-9.15-7.7-3.19-1.95-6.73-5.91-7.22-9.77-.46-3.6-6.13-5.27-7-.95Z"/><path class="cls-23" d="M376.74,269.89c-.77,5.46-.33,10.59,2.38,15.52,2.17,4,6.8,9.91,12.07,8.38,5.81-1.68,3.11-7.91.22-10.92a23.61,23.61,0,0,1-6.53-13c-.6-4-7.56-4.05-8.14,0Z"/><path class="cls-24" d="M399.32,202.14c1.06,3.52,3.21,6.53,4.09,10.12.94,3.77,1.28,8.11,4.43,10.8a3.43,3.43,0,0,0,4.71,0c7.7-6.65.77-23.89-8.33-25.83-2.86-.61-5.81,1.84-4.9,4.91Z"/><path class="cls-24" d="M395,220.59c.85,3.62,1.6,7.3,2.34,10.95.71,3.49.57,7.34,3.9,9.4a3.89,3.89,0,0,0,3.93,0c4.14-2.48,3.42-8.13,2.57-12.27a21.54,21.54,0,0,0-6.7-11.59,3.64,3.64,0,0,0-6,3.51Z"/><path class="cls-23" d="M385.23,223.55c.14,2.11-.48,4.4-.6,6.56a52.39,52.39,0,0,1-.41,5.75c-.62,3.58-.83,8.95,4.29,8.91,4.64,0,6.79-6,7.59-9.71a16.45,16.45,0,0,0-.09-7.61c-.67-2.49-2.12-3.91-3.61-5.84-2.07-2.69-7.44-2.32-7.17,1.94Z"/><path class="cls-23" d="M400.83,167.47c-3.88,6.5-8.29,17-4.05,24.28A3.42,3.42,0,0,0,403,191c1.06-3.21.35-6.92.51-10.3a74.85,74.85,0,0,1,1.14-11.59,2.07,2.07,0,0,0-3.77-1.59Z"/><path class="cls-23" d="M390,195.14a25.09,25.09,0,0,1,.86,11.74c-.41,3-2.81,6.5-1.73,9.36a1.67,1.67,0,0,0,1.58,1.2c4.27-.55,5.76-6.27,6.44-9.95.91-4.92-.31-9.9-2.36-14.38-1.23-2.69-5.73-.78-4.79,2Z"/><path class="cls-20" d="M394,203.52a21.93,21.93,0,0,0-7.64,15.53c-.34,5.56.8,12.36,6.6,14.51a3.46,3.46,0,0,0,4.21-2.39c1-3.91-1-7.53-1.07-11.43a23.85,23.85,0,0,1,3.13-12.19c1.93-3.4-2.43-6.46-5.23-4Z"/><path class="cls-20" d="M402.9,256.29a16.25,16.25,0,0,0,1.25,9.07c1.28,2.57,2.59,6,5.76,6.54a3.82,3.82,0,0,0,4.57-2.6c.78-2.64-.8-4.52-1.46-7s-1.64-4.68-2.29-7.1c-1.23-4.57-7.42-3.24-7.83,1.06Z"/><path class="cls-20" d="M380.49,246.16c-1.65-2.75-2-6.72-2.15-9.9-.14-3.6.86-6.51-1.59-9.57-1.17-1.46-3.33-1.3-4.82-.62-4.54,2.06-4,8.55-3.24,12.63.92,4.71,3.92,7.8,7.24,11,2.34,2.24,6.3-.64,4.56-3.53Z"/><path class="cls-24" d="M366.07,236.6c-2.66,8.82.22,19.33,8,24.53,3.47,2.32,7.67-2.21,5.61-5.62a45.64,45.64,0,0,1-4.24-8.58c-1.14-3.34-1.46-6.9-2.31-10.33-.9-3.59-6-3.36-7.05,0Z"/><path class="cls-20" d="M402.76,170.7c-1.6,3.47-2.3,6.61-.23,10.09,1,1.68,2.51,2.91,3.64,4.46,1.63,2.23,1,4.2,1,6.84,0,6.95,4.63,18.5,13.33,16.42,1.72-.41,3.54-2.45,3.3-4.34-.45-3.62-2.17-4.49-3.94-7.39s-.89-6.27-1.19-9.51a14.54,14.54,0,0,0-3.22-8.19c-1.27-1.52-7.22-4.88-7-6.84.34-3-4.44-4.21-5.67-1.54Z"/><path class="cls-25" d="M316.92,303c1.3-6.12,6.9-10.58,12.87-12.46s12.37-1.65,18.63-1.61,12.73-.17,18.42-2.8c4.61-2.13,8.39-5.71,12.69-8.42,9.52-6,21.18-7.49,32.43-7.91a22.93,22.93,0,0,1,6.72.46,17.26,17.26,0,0,1,6.41,3.59c6.94,5.78,12,20.9,11.78,29.93Z"/><path class="cls-20" d="M460.25,285.37c2.83-1,4.71-6.58,6-9.3s2.18-5.67,4-8.07c3.09-4.11,8.58-6,13.68-5.45a21.63,21.63,0,0,1,13.22,7.25v15.57Z"/><path class="cls-18" d="M393.06,293.79c-7.92,3-29,4-52.91-9.65-7.35-4.19-16.24-7.08-24.39-4.8a47.47,47.47,0,0,0-7.25,3.07c-10.14,4.74-22.39,6.88-32.38,1.82-7.63-3.87-13.24-11.57-21.53-13.68-8.68-2.22-17.57,2.36-24.89,7.5s-14.58,11.21-23.43,12.54c-5.48.83-14.48-1.12-21.24,7.48V311H384.13Z"/><path class="cls-18" d="M230.51,304.65c-7.92,3-29,4-52.91-9.65-7.35-4.19-16.24-7.08-24.39-4.81a47.52,47.52,0,0,0-7.25,3.08c-10.14,4.73-22.39,6.88-32.38,1.82-7.63-3.87-13.24-11.57-21.53-13.69-8.67-2.21-17.56,2.37-24.89,7.51s-14.58,11.21-23.43,12.54c-5.48.83-14.48-1.12-21.24,7.48v12.94H221.58Z"/><path class="cls-21" d="M429.42,33.41c-.4,12.5-2.06,25.51-2.26,38,.49,4.47,1.22,9.16-.41,13.35-6.46,8.88-3.32,14.9-3.43,24.7-7.53,17.21-14.21,35.63-10.19,54.79,2.45,14.48,9.09,28.25,9.43,42.93-.61,9.28-16.09,47-10.64,54.6,2,10,15-6.69,24.47.5,17.62,14.33,32-11.45,32.26-26.91-1.55-8.88-3.63-17.82-2.48-26.92,1.17-7.61.8-14.92-5.81-19.21-3.36-4.14-.28-10.51-1.93-15.58-2.94-6.4-10.65-10.39-9.94-18.5-3.18-30.25-5.47-60.71-8-90.94-2.1-7.72-8.57-14.35-8.16-22.34C432.58,37.24,429.86,31,429.42,33.41Z"/><path class="cls-24" d="M427.49,138.61c-6.16,7.67-4.55,20-.7,28.45a53.66,53.66,0,0,0,8.74,12.61c3.21,3.69,5.85,7.86,8.83,11.74,1.05,1.36,3.05,1.64,4.05,0,4.88-8-1.47-17-6.18-23.49a31.25,31.25,0,0,1-6-12.81c-.93-4.78.26-9.55-.44-14.31-.53-3.55-6.1-5-8.31-2.19Z"/><path class="cls-20" d="M439.28,166.53a40.77,40.77,0,0,0,4.62,11.08c1.66,3,2.91,7.92,6.3,9.36,1.21.52,3,.69,3.92-.5,5.54-7-5.32-16.65-8.25-22.72-1.85-3.83-7.43-1-6.59,2.78Z"/><path class="cls-24" d="M449.86,190.24c.09,4.12.8,8.25.62,12.38-.17,3.66-2.49,6.81-2.23,10.41.18,2.47,2.46,4.77,5.11,3.89,10.95-3.63,7-21,3.4-28.55-1.6-3.38-7-1.65-6.9,1.87Z"/><path class="cls-20" d="M426.83,174c-1.48,5.86,2.43,8.88,5.3,13.46a32.72,32.72,0,0,1,3.68,8.18c.85,2.93.95,6,2.74,8.5,1.66,2.33,5.52,2.94,7.05,0,2.74-5.28.3-11.84-2.24-16.83a34.62,34.62,0,0,0-5.31-7.4c-2.05-2.23-5-4-6.68-6.51a2.51,2.51,0,0,0-4.54.6Z"/><path class="cls-20" d="M456.35,205.15c-1.24,7.31-7.2,14.45-5.84,22.07a3.4,3.4,0,0,0,4.16,2.36c9.22-3.64,8.83-15.43,8.22-23.54-.26-3.48-5.86-4.83-6.54-.89Z"/><path class="cls-20" d="M416.53,190.44c.34,3.36-1.31,7.53-2.07,10.78a25.19,25.19,0,0,0-.58,11c.51,2.76,4.14,2.64,5.48.71a27.28,27.28,0,0,0,5.09-12.55C425,195.6,424,193,421.68,189c-1.3-2.22-5.44-1.44-5.15,1.4Z"/><path class="cls-22" d="M408.48,215.2a19.56,19.56,0,0,0-3.39,11.88c.09,4,.4,8.78,3.5,11.7,2.29,2.15,5.43,1,6.5-1.72,1.31-3.29.25-7.21.13-10.67A63,63,0,0,0,414,215.92c-.53-2.68-4.19-2.73-5.49-.72Z"/><path class="cls-22" d="M425.13,187.71a47.91,47.91,0,0,1,6,13.09c1.13,3.94,1,8.95,4.24,11.81,1.95,1.74,4.32,1.2,5.82-.75,3.14-4.1.69-10.94-1-15.27a53.6,53.6,0,0,0-8.36-14.05c-3-3.78-9.32,1.14-6.7,5.17Z"/><path class="cls-22" d="M442.36,209.1a46.16,46.16,0,0,0-6.91,25.07c0,6.27,2.07,16.6,9.51,18,3.64.67,6.06-2,5.56-5.56-.39-2.71-2.23-4.75-3.1-7.32-1.09-3.21-.87-6.61-.61-9.93.56-7.08,1.25-12.78-.51-19.73a2.18,2.18,0,0,0-3.94-.51Z"/><path class="cls-23" d="M405,235.62c-2.56,4.53-.49,9.67,1.51,14.06s5.6,9.25,11,8.49c1.66-.24,2.85-2.21,2.85-3.75,0-3.61-3-5.92-4.86-8.72-1.7-2.54-4.32-6.27-4.76-9.33-.39-2.77-4.52-2.92-5.74-.75Z"/><path class="cls-20" d="M434.15,108.37a48.61,48.61,0,0,1,2.5,9c.5,2.91.61,5.78,2.23,8.34a2.69,2.69,0,0,0,4.61,0c3.24-5.63.22-13.78-2-19.32-1.79-4.45-9.06-2.61-7.32,2Z"/><path class="cls-23" d="M418,124.33c-3.54,7.53-8,19.19-4.4,27.29,1.17,2.66,5.47,2.43,6.72,0,1.94-3.77,1.59-8.15,1.89-12.31.32-4.53.66-9,1-13.56.22-2.73-4.07-3.91-5.24-1.42Z"/><path class="cls-23" d="M431,64.24c0,3.54.81,7,1.17,10.52s.14,7.42,2.83,10.09a4.45,4.45,0,0,0,6.23,0c3-3.29,2.28-7.43,1.58-11.53a27.71,27.71,0,0,0-4-11.19c-2.25-3.25-7.82-2.27-7.78,2.11Z"/><path class="cls-24" d="M429.21,75.35c-.18,5.58-.42,12,2.09,17.08,1.67,3.4,7.13,2.47,8-1,1.36-5.47-.36-11.83-1.71-17.17-1.21-4.76-8.22-3.6-8.38,1.13Z"/><path class="cls-24" d="M433.14,95.25a7.56,7.56,0,0,0-.28,4.19,14,14,0,0,0,1.48,3.7,19.21,19.21,0,0,0,5.81,6.25c2.48,1.77,5.94-.62,5.92-3.4,0-3.21-1.54-5.45-3.88-7.5-.84-.74-1.76-1.38-2.59-2.11-1.05-.91-1.6-1.8-3-2.26l1.77,1.37a5.51,5.51,0,0,1-.59-.84,2.57,2.57,0,0,0-4.63.6Z"/><path class="cls-24" d="M441.76,157.17a74.67,74.67,0,0,1,4.17,9.15c1.08,2.81,1.58,5.94,4.48,7.43a2.83,2.83,0,0,0,3.78-1c2-3.11.4-6.57-.84-9.68a56.38,56.38,0,0,0-5.11-9.69c-2.61-4-8.81-.47-6.48,3.79Z"/><path class="cls-24" d="M430.81,211.3a19.46,19.46,0,0,0-4.2,10.82c-.3,3.76.53,8.39,4,10.47,1.93,1.17,4,.26,5.26-1.38,1.91-2.53,1.45-6.61,1.74-9.64s1.07-6.18.53-9.32c-.65-3.77-5.51-3.4-7.31-.95Z"/><path class="cls-24" d="M458.51,220.08c-.24,3.24,1,6.1,1.92,9.14s1.16,7,3.13,9.66c1.32,1.8,4,2.12,5.26,0,1.69-2.83,1.33-6.41.51-9.5s-3.42-6.14-3.69-9.3a3.57,3.57,0,0,0-7.13,0Z"/><path class="cls-24" d="M445.58,231c0,6.71,1.66,17.32,8.67,20.15,2.24.9,4.4-1,5.13-2.92,1.21-3.12-.45-7-1.58-10a61.46,61.46,0,0,0-4.54-9.34,4.15,4.15,0,0,0-7.68,2.08Z"/><path class="cls-24" d="M440.26,126.29c-1.81,3.58-3.37,7.25-3.48,11.31-.11,3.76.54,8,3.79,10.25a4.09,4.09,0,0,0,4.88-.63c2.18-2,2.44-5.3,2.85-8.06.45-3,.49-6.07.95-9.08.38-2.42-.4-4.82-2.85-5.8a4.89,4.89,0,0,0-6.14,2Z"/><path class="cls-20" d="M432.43,134.77c-1.7,4.86-3.8,19.64,4.36,20.22,7.85.56,3.45-15.2,2.91-19.24s-5.81-5.17-7.27-1Z"/><path class="cls-20" d="M412.8,225.23c-1.86,6.71-2.52,18,4.31,22.37,2.89,1.86,6.74-1.23,5.79-4.45-1.75-5.89-3.75-11.92-5-17.92-.56-2.59-4.4-2.4-5.06,0Z"/><path class="cls-20" d="M427.24,236.05a18.67,18.67,0,0,0,4.64,17.28c3.56,3.91,11.64,9.57,16.89,5.64a4.14,4.14,0,0,0,1.83-4.5c-1.28-4.16-5.73-5.61-9.14-7.7-3.19-2-6.73-5.91-7.23-9.77-.45-3.6-6.12-5.28-7-.95Z"/><path class="cls-20" d="M456.43,235.25a33.32,33.32,0,0,1,.31,10.45c-.59,3.37-3,6.6-2.69,10,.22,2.71,2.26,4.1,4.86,3.71,5.14-.77,8-7.51,8.91-12,1.1-5.5.59-11.23-2.82-15.8-3.26-4.36-9.34-1.73-8.57,3.62Z"/><path class="cls-20" d="M453.2,190.82c3.71,3.56,4.94,8.52,7.7,12.61a3.61,3.61,0,0,0,6.5-.85c2.82-7.41-2.89-14.71-8.69-18.9-4.22-3.05-9.18,3.63-5.51,7.14Z"/><path class="cls-20" d="M417,148a38.41,38.41,0,0,0-1.62,12.65c.24,3.69,1.75,9.17,6.23,9.64,4,.43,5.46-4.68,5.53-7.76.1-4.41-.42-8.74,0-13.16.54-5.9-8.62-6.85-10.13-1.37Z"/><path class="cls-20" d="M423.64,105.79c.79,5-2,11.12,1.52,15.45a3.5,3.5,0,0,0,3.37.89c3.9-.66,5.73-5.49,6-9A21.6,21.6,0,0,0,432,102.25c-1-2-3.81-2.73-5.74-1.88-2.24,1-3,3.09-2.66,5.42Z"/><path class="cls-23" d="M418.29,188.3A79.28,79.28,0,0,1,421.55,199c.84,3.39,1.16,7.16,3.83,9.67a3.58,3.58,0,0,0,5.52-.71c4.91-6.95-2.29-17.75-6.5-23.2-2.19-2.83-7.45.26-6.11,3.56Z"/><path class="cls-23" d="M448.31,195.06l.36-.93c1.79-4.64-6.43-7-7.5-2.07-1.12,5.19.81,11,.95,16.28.13,5-1.15,10.57,1,15.25.7,1.53,2.61,1.92,4.08,1.66,7.19-1.28,7.73-11.09,7.35-16.91-.41-6.43-2.09-14.71-7.63-18.6l-.93,7.11c1.12-.34,1.91-.64,2.35-1.79Z"/><path class="cls-23" d="M419.32,236.77c-.77,5.46-.33,10.59,2.38,15.53,2.17,3.95,6.8,9.9,12.07,8.38,5.81-1.69,3.11-7.92.21-10.92a23.69,23.69,0,0,1-6.52-13c-.6-4-7.56-4-8.14,0Z"/><path class="cls-26" d="M497.16,285.37c-10.24-10.5-28.25-12.2-40.28-3.8-4.71,3.29-8.42,7.81-12.86,11.46a43.87,43.87,0,0,1-23.21,9.68h76.32Z"/><path class="cls-27" d="M442.16,266.48a16.69,16.69,0,0,1-8.11,13.67c-2.34,1.35-5,2.76-7.88,2.76a16,16,0,0,1-14.05-8.32,16.65,16.65,0,0,1-.08-16.26c1.4-2.42,3.91-3.95,6.33-5.35a15.39,15.39,0,0,1,7.8-2.39,15.24,15.24,0,0,1,7.71,2.53c2.42,1.4,4.83,2.89,6.23,5.31A16.09,16.09,0,0,1,442.16,266.48Z"/><path class="cls-22" d="M464.37,274.23a16.69,16.69,0,0,1-8.11,13.66c-2.35,1.36-5,2.76-7.89,2.76a16,16,0,0,1-14-8.31,16.67,16.67,0,0,1-.08-16.27c1.4-2.42,3.91-3.95,6.33-5.35a13.5,13.5,0,0,1,15.51.14c2.42,1.4,4.83,2.89,6.23,5.32A16,16,0,0,1,464.37,274.23Z"/><path class="cls-17" d="M460.52,304.3c0-13.22-7.8-25.78-15.85-28.8a14.26,14.26,0,0,0-14.69,3c-2.74,2.7-4.52,6.65-8.11,8a12,12,0,0,1-5.13.5c-3.9-.28-7.76-1.1-11.67-1.25s-8,.44-11.2,2.71c-2.37,1.69-4,4.17-6,6.35-3.28,3.69-7.44,7.61-12,9.43Z"/><path class="cls-28" d="M22.49,317.18c15.1,0,25.06,7.3,51.41,0s24.77-7,36.48-4.45,27.22-6.35,41.15-7,28.8,5.38,38,1.58,22.78-10.79,38-10.47,16.77,3.42,30.7,3.25,13.29-2.64,25-3.26,14.87,3.48,29.12,0,24.37,5.36,34.81,5.86,22.65-7,38.07-2.77,73,3.27,87.58-2.13,24.37-.32,24.37-.32V398.88H23Z"/><path class="cls-18" d="M84.13,334.94c25.56-15.72,38-2,59.3-9.83s20-15.39,37.35-10.81,16.06,7.76,28.83,2.9,21.3,2.34,38-2.57c0,0-6.55,18.35-32.76,21.62s-59.3,9.18-77.32,15.4S84.13,334.94,84.13,334.94Z"/><path class="cls-29" d="M47.65,345.21c19,3.4,25.84-10.34,48.39-10.81s32.89,12.22,45.1,8.93,13.63-17.85,36.18-17.85,25.16,11.27,45,0,30.63-19.11,49-17.07,56.84,12.78,77,9.75,29.75-13.57,43.69-10.07c-5.63,9.4-17.38,5.86-28.18,14.68s-30.54,18.68-55.44,8.81-31.48,0-52.15,4.7-54.68,37.82-79,29.24-93.39,6.45-98.09,33H23l-.48-61.3C29.33,335.81,29.33,341.92,47.65,345.21Z"/><path class="cls-19" d="M33.21,342.28c5.93,5.65,14,8.09,22.12,8,6.64,0,18-2,21.12-8.84,1.23-2.71-.23-5.59-3.32-5.79s-5.56,1.32-8.46,2.09a42.79,42.79,0,0,1-9.34,1.48C49,339.52,43,337.78,37,335.78c-3.71-1.24-6.53,3.89-3.79,6.5Z"/><path class="cls-19" d="M196.76,332.39c5.74,3.27,17.52,5.57,20.6-2.4.65-1.69-.73-3.64-2.33-4.09-2.62-.76-5.2.42-7.8.84a15.51,15.51,0,0,1-7.76-.77c-3.8-1.36-6.12,4.48-2.71,6.42Z"/><path class="cls-19" d="M261,312.88c2.7-.12,5.28.73,7.86,1.45a4.39,4.39,0,0,0,5.18-2.54c.88-2.18,0-4.13-1.8-5.48-3.6-2.7-8.13-2.78-12.37-1.81-4.66,1.07-3.7,8.59,1.13,8.38Z"/><path class="cls-19" d="M122.83,344l6.79,2.17c2.62.84,4.95,1.31,7.18-.63a3.35,3.35,0,0,0,.88-3.33c-.92-2.77-3.18-3.53-5.82-4.13l-7-1.58c-4.89-1.12-6.85,6-2.07,7.5Z"/><path class="cls-30" d="M94.19,402c3.68-5.76,4.71-12.46,10-17.31a19.29,19.29,0,0,1,8.4-4.6c3.25-.81,6.82-.55,9.93-1.69,2.36-.86,4.49-4,2.63-6.47-6.78-8.95-20.71-4.79-28,1.4-7.08,6-13.15,18.46-9.66,27.79a3.71,3.71,0,0,0,6.68.88Z"/><path class="cls-31" d="M112.26,402.9c.25-5.1,1.42-11,4.5-15.21,2.84-3.84,8.34-6.39,9.26-11.34.48-2.58-.3-5.37-2.73-6.72-8-4.46-17.12,4-20.85,10.59-4.63,8.22-5,17.27-.4,25.45,2.77,4.93,10,2.47,10.22-2.77Z"/><path class="cls-18" d="M125.23,395.67l-.66-.37q1.41,3.46,2.83,6.95c1.06-4.43.85-8.82,2.32-13.2s5.16-7.67,5.92-12c.85-4.79-2.92-9.6-8.13-8.13-12,3.39-17,24.85-11.37,34.81,2.5,4.43,8,3.47,10.64,0l.42-.55c1.79-2.32.36-6.19-2-7.5Z"/><path class="cls-30" d="M139.57,401.25a31.84,31.84,0,0,1,4.68-16.43c2.72-4.66,6.73-9.09,6.6-14.79a4.57,4.57,0,0,0-5.7-4.34c-7.35,1.41-12.19,9.68-14.92,16-3.21,7.41-3.41,14.83.26,22,2.22,4.36,9.17,2.24,9.08-2.46Z"/><path class="cls-18" d="M152.61,403.86c-1.62-5.94,1.57-13.82,3.76-19.32,2.35-5.87,6.43-12.35,6.25-18.87a4.1,4.1,0,0,0-5.1-3.89c-9,1.82-14.11,12.44-16.53,20.28-2.72,8.8-3.33,17.88,1.42,26.1,3.17,5.46,11.87,1.83,10.2-4.3Z"/><path class="cls-30" d="M162.89,399.92a39.2,39.2,0,0,1,3-17c2.2-5,7-9.57,6.66-15.26a5.28,5.28,0,0,0-6.59-5c-7,1.87-10.45,10.63-12.77,16.81-2.61,6.95-3.45,14.83-1,22,1.91,5.58,10.82,5,10.68-1.45Z"/><path class="cls-31" d="M170.84,395.57c-1.79-2.06,2-11.18,3.08-13.29,2.26-4.43,6.41-8,6.22-13.31a4.7,4.7,0,0,0-4.55-4.55c-8.72-.93-13.6,10.26-15.33,17.15-1.81,7.18-1.69,16.51,5.36,20.77,4.36,2.64,8.34-3.2,5.22-6.77Z"/><path class="cls-30" d="M180.8,399a75.35,75.35,0,0,1,3.66-16.51c1.57-4.79,6.07-10.1,5.51-15.18-.36-3.2-3.06-6.11-6.59-5-6.6,2.05-9.38,10.74-10.67,17a36.51,36.51,0,0,0,1.55,20.64,3.35,3.35,0,0,0,6.54-.89Z"/><path class="cls-31" d="M190.8,399.27c-1.44-6.25.15-13.26,2.3-19.18,2.05-5.66,8-12.69,5.65-18.83a5.15,5.15,0,0,0-6.16-3.5c-7.67,1.62-11.8,14.53-13.59,21.28a32.15,32.15,0,0,0,2.71,24.06c2.71,5.13,10.31,1.51,9.09-3.83Z"/><path class="cls-30" d="M201.59,399a141.16,141.16,0,0,1,3.08-17.18c1.37-5.38,3.93-10.2,2.62-15.85-.48-2.08-3.15-3.78-5.24-3-13,5-13.23,26.25-9.21,37.19,1.8,4.89,8.14,3.79,8.75-1.19Z"/><path class="cls-18" d="M211.82,395.69c1.76-6.8,1.36-13.95,3.31-20.71,1.6-5.51,5.61-10.37,4.45-16.33-.39-2-2.33-2.91-4.11-3.14-8.1-1-12.73,9.22-14.28,15.63-2.13,8.81-1.8,17.44,1.89,25.69,1.72,3.86,7.77,2.58,8.74-1.14Z"/><path class="cls-18" d="M303.41,384.18A54.53,54.53,0,0,0,315,368c2.59-5.69,5.54-13.38.48-18.54a5,5,0,0,0-4.88-1.29c-5.92,2-7.18,7.89-9.29,13.15a117,117,0,0,1-7.54,15.47c-3.52,6,4.68,12.4,9.65,7.44Z"/><path class="cls-31" d="M315.73,380.23a41.14,41.14,0,0,0,10.32-16.55c1.76-5.15,4.33-14.94-1.42-18.65-5.94-3.83-10.58,4.21-11.84,9-1.71,6.54-2.67,13.24-6.19,19.15-3.39,5.7,4.43,11.68,9.13,7Z"/><path class="cls-30" d="M326.94,384.15c6.09-4,9.37-9.31,12.19-15.92,3-7,5.38-14.84,3.78-22.41-1.12-5.34-9.2-6.29-11.71-1.53-2.7,5.14-3.54,10.95-5.17,16.48-1.28,4.37-2.48,11.46-5.63,14.91-3.95,4.34,1.18,11.95,6.54,8.47Z"/><path class="cls-31" d="M337.69,387.43c4.92-2.34,8.16-6.73,9.87-11.83,1.56-4.66,2.47-11.77-.38-16.05a4.28,4.28,0,0,0-6.63-.86c-2.8,2.79-3.41,7.1-4.54,10.76a27.28,27.28,0,0,1-4.79,9.59,5.37,5.37,0,0,0,6.47,8.39Z"/><path class="cls-18" d="M333,385.16c7.18-3.41,11.24-9.3,14.22-16.48a78.48,78.48,0,0,0,3.58-11.75c.81-3.3,1.81-6.76-1-9.47-6.32-6.12-11,4.74-12.86,9.29-2.85,7-4.74,15-9.86,20.75a4.9,4.9,0,0,0,5.91,7.66Z"/><path class="cls-30" d="M353,383.89c3.49-4.52,5.61-10.34,6.8-15.89,1.11-5.14,2.3-12.18-.84-16.74-1.79-2.58-6.33-4.15-8.69-1.12-3.34,4.3-3.46,9.75-4.17,15.05s-1.91,10.78-2.27,16.22,6.53,5.92,9.17,2.48Z"/><path class="cls-18" d="M363.62,378.84c6.47-3.66,10.07-9.6,11.65-16.79,1.69-7.6,3.06-19-2.57-25.19-2.79-3.06-7.64-1.94-9.7,1.25-3.3,5.11-2.14,13.19-2.44,19.1-.22,4.19-.84,9.58-3.7,12.87-4.05,4.66,1,12,6.76,8.76Z"/><path class="cls-31" d="M381.91,368.4c5.24-9.24,12.34-20,11.41-31.18-.56-6.62-10.07-10.7-13.62-3.69-4.44,8.79-4.91,19.26-9.36,28.1-3.85,7.66,7.28,14.34,11.57,6.77Z"/><path class="cls-30" d="M399,362.64c6.54-6.77,16.34-18.13,13.55-28.37-1.06-3.9-6.35-5.47-9.21-2.43-3.14,3.35-4.19,7.89-6.25,11.92-2.12,4.18-4.28,8.31-6.34,12.51-2.51,5.13,3.89,10.87,8.25,6.37Z"/><path class="cls-18" d="M422.62,353.88c2.7-6,4.71-11.87,4.82-18.59.1-5.93-.86-13.06-6.67-16a4.29,4.29,0,0,0-5.7,1.5c-2.83,4.21-1.85,8.74-1.69,13.56a61.6,61.6,0,0,1-.87,15.22c-1.25,5.76,7.41,10.29,10.11,4.26Z"/><path class="cls-31" d="M394.4,361.21c4.83-2.43,6.91-8.63,8.26-13.5,1.49-5.42,2.5-11.88-1.64-16.31-2.32-2.49-5.83-1.9-8.22,0-3.76,3-3.94,8.74-4.65,13.13s-2.37,9.54-.71,13.85c1.14,3,4,4.3,7,2.83Z"/><path class="cls-31" d="M431.33,352.92c4.5-3.85,6.58-9.55,7.93-15.17,1.51-6.26,3.16-12.89-1.32-18.14-1.7-2-5.79-2.65-7.95-1-4.69,3.52-5,7.83-5.82,13.37-.6,4.22-.25,10-2,13.92-2.63,6,3.9,11.51,9.12,7Z"/><path class="cls-30" d="M441,344.09c2.17-4.58,4.76-8.91,6.54-13.68a58.41,58.41,0,0,0,3-15.17c.74-7.78-11.54-9.15-13.46-1.82-2.3,8.81-3.09,18-5.5,26.7-1.52,5.47,6.86,9.39,9.42,4Z"/><path class="cls-18" d="M447.66,334.69c7,.95,10.57-3.89,12.75-9.94a33.63,33.63,0,0,0,2-9.45c.2-4-.87-6.07-3.27-9.18-1.75-2.25-5.46-1.71-7.29,0-3.12,2.92-4,5.8-4.79,9.9-.36,1.82-.77,3.65-1.07,5.48-.11.93-.24,1.85-.4,2.77-.47,1.29-.23,1.31.72.05-4.28,1.84-3.34,9.73,1.35,10.37Z"/><path class="cls-18" d="M461.1,334.5c6.4-6.82,11.29-16.38,9.93-25.94-.76-5.31-8.71-6.93-12-3.17-5.31,6-6.64,15.11-9.2,22.54-2.21,6.42,6.78,11.35,11.28,6.57Z"/><path class="cls-18" d="M440.24,348.49c.74-5.16,1.44-10.27,1.93-15.46.46-4.94.83-10.06-1.81-14.47-1.64-2.75-6-3.7-8.32-1.07-6.47,7.47-4.77,20.14-4.14,29.33.45,6.55,11.26,9.12,12.34,1.67Z"/><path class="cls-31" d="M460.25,325.85c-6.42,7.72,4.78,15.64,11.49,9.09s13-17.74,12.72-27.17c-.17-5.86-7.71-9.58-12-5-6.52,7-8.27,16.71-12.92,24.85l3.92-3,.38,0,4.81,2.76c-.09-.17-.19-.34-.29-.51-1.54-2.67-6-3.63-8.1-1Z"/><path class="cls-31" d="M484.59,338.06c3.94-6.68,20.23-33.67,6.17-37.48-7.22-2-9.85,6.42-11.36,11.56-2.06,7-4.08,14.09-6.64,20.94-2.61,7,8.19,11.14,11.83,5Z"/><path class="cls-18" d="M500.74,325.41a38.05,38.05,0,0,0,4.32-13.64c.43-4.6-.19-10.87-4.78-13.16a6.14,6.14,0,0,0-7.16.93c-3.17,2.89-2.66,7-2.86,10.88a54,54,0,0,1-1,10.15c-1.62,6.66,8.16,11.43,11.48,4.84Z"/><path class="cls-30" d="M224.87,388.32a32.14,32.14,0,0,1,4.19-16.9,58.07,58.07,0,0,1,4.69-7c2-2.65,3-5.27,4.08-8.39,1.83-5.05-4.5-9.17-8.74-6.72-13.71,7.9-21.07,27.16-14.61,41.86,2.26,5.15,10.59,2.44,10.39-2.82Z"/><path class="cls-30" d="M238.24,379.52a27.68,27.68,0,0,1,3.43-15.08c2.41-4.62,7.86-8.75,7.74-14.13,0-2.33-1.79-5.38-4.37-5.74-8.3-1.16-13.84,7.36-16.57,14.3s-2.68,14.81-1,22.11c1.36,5.95,11.18,4.77,10.77-1.46Z"/><path class="cls-18" d="M245.77,378.66c-.41-2.76,3.17-8.11,4.29-10.55,1.76-3.85,4-7.42,5.94-11.17,4.79-9.23-7.88-16.35-13.77-8.05-6.48,9.12-13.11,23.6-6.65,34.06,3.52,5.7,11.1,1.72,10.19-4.29Z"/><path class="cls-30" d="M252.07,387.55c5.75-5.24,10.87-11.19,14.32-18.24,3.16-6.47,8-15.41,2.16-21.71a5.58,5.58,0,0,0-5.43-1.43c-7.07,1.89-8.21,10.1-10.85,15.88a199.41,199.41,0,0,1-9.33,18.46c-3.45,5.81,4.32,11.42,9.13,7Z"/><path class="cls-30" d="M266.6,385.2c7.78.51,12.55-5.57,15.74-11.9,3.36-6.64,8.59-18.2,5.18-25.52-1.53-3.28-4.72-5.33-8.33-4.37-4.32,1.14-6.2,5.42-7.05,9.39s-1.71,8.11-2.87,12.12c-.52,1.83-2.1,10.63-3.93,11-5.5,1.07-3.8,9,1.26,9.3Z"/><path class="cls-31" d="M280.74,387.81c9.59-.18,15.22-4.18,19.76-12.54,4-7.32,9.68-20.06,3.06-27.17a6.91,6.91,0,0,0-8.23-1.06c-5.74,3.26-6.22,11.22-8.15,17-1.63,4.89-2.77,10.28-8.05,11.87-6.4,1.92-5.38,12,1.61,11.88Z"/><path class="cls-31" d="M261.49,381.8a82.27,82.27,0,0,0,8.26-14.17c2.46-5.44,5.28-10.24,2.41-16-1.62-3.26-6-3.87-8.91-2.34-4.84,2.51-5.45,7.87-7.23,12.57-1.72,4.54-3.69,9-5.78,13.39a6.52,6.52,0,0,0,11.25,6.58Z"/><path class="cls-18" d="M285.6,381.84a162.64,162.64,0,0,0,8.69-18.47c2.35-6.12,5.52-13.78,2.06-19.91a7.4,7.4,0,0,0-9.94-2.6c-5.69,3-7.28,11.12-9.23,16.85-2.05,6-4,12-6.23,18-3.26,8.51,10.42,14.1,14.65,6.18Z"/><path class="cls-32" d="M154.06,303.69c-.4,2.08.36,3.85,1.28,5.68a24.75,24.75,0,0,0,2.48,4,29.2,29.2,0,0,0,3.24,3.7,15.14,15.14,0,0,0,2.08,1.76,5.28,5.28,0,0,0,2.62,1.09,1.75,1.75,0,0,0,1.67-2.2,5.62,5.62,0,0,0-1.46-2c-.48-.55-1-1-1.55-1.53a38.49,38.49,0,0,1-2.84-3.14c-.05-.07-.21-.28-.07-.1l-.35-.46c-.2-.27-.4-.56-.59-.84-.39-.57-.77-1.14-1.14-1.72-.7-1.14-1.61-2.45-1.58-3.71,0-2.12-3.37-2.68-3.79-.51Z"/><path class="cls-32" d="M172,301.79a10.2,10.2,0,0,0,2,4,12,12,0,0,0,2.46,2.15,17.21,17.21,0,0,0,3.91,1.95,9.62,9.62,0,0,0,2.71.56,5.38,5.38,0,0,0,2.87-.48,1.83,1.83,0,0,0,0-3.12,7.84,7.84,0,0,0-2.19-.73c-.66-.21-1.34-.33-2-.53l-.93-.3-.55-.22-.11-.05c-.49-.23-1-.5-1.43-.78-.3-.18-.59-.38-.88-.58l-.29-.21c-.3-.21.27.24.08.06s-.35-.29-.52-.45-.36-.38-.55-.57a3.2,3.2,0,0,0-.27-.25c-.16-.14.18.26,0,0a9.71,9.71,0,0,1-.65-.93c.18.36,0-.18,0-.2.13.29-.06-.18-.08-.23a1.79,1.79,0,1,0-3.46,1Z"/><path class="cls-32" d="M191.52,300.34a15.82,15.82,0,0,0-6.06,8.09,14.64,14.64,0,0,0-.77,4.95,10.36,10.36,0,0,0,.35,2.72,4.44,4.44,0,0,0,1.65,2.63,1.77,1.77,0,0,0,2.42-.64,4.11,4.11,0,0,0,.2-2.46c0-.3-.05-.6-.1-.9s0,.08,0-.17-.06-.64-.07-1a15.58,15.58,0,0,1,0-2.16c0-.14,0-.28,0-.43,0,.37,0-.11,0-.18.07-.35.15-.71.24-1.06a11.44,11.44,0,0,1,3.9-6.23A1.9,1.9,0,0,0,194,301a1.86,1.86,0,0,0-2.52-.67Z"/><path class="cls-33" d="M134.31,301.94c-4.85.26-9.93-.68-13.84-3.57s-6.37-8-5.27-12.73c1.68-7.23,10.27-10.75,13.3-17.53.73-1.61,1.13-3.41,2.23-4.8,2-2.49,5.51-2.95,8.68-3.21a10.09,10.09,0,0,1,4.89.39c3.27,1.44,4.89,6.21,8.46,6.12a7.16,7.16,0,0,0,3.51-1.41l6.9-4.35c2-1.27,4.21-2.59,6.59-2.46,2.14.11,4,1.36,6,2.18,3.2,1.33,6.75,1.53,10.21,1.55s7-.1,10.35.64,6.72,2.45,8.57,5.39,1.75,7.2-.8,9.54Z"/><path class="cls-17" d="M138.66,276.26c7.5-6,13.23-4.73,20-3.36,3.18.64,6.64,1.74,9.51.22a29.37,29.37,0,0,0,3.29-2.53,15.56,15.56,0,0,1,4.32-2.09,38.33,38.33,0,0,1,15.18-1.92c2.21.17,4.55.6,6.18,2.1.74.68,1.3,1.54,2,2.22,1.42,1.28,3.37,1.74,5.19,2.35,5.35,1.79,10.27,5.36,12.85,10.39s2.46,11.56-1,16c-3.85,5-10.76,6.5-17.07,6.46a30,30,0,0,1-6.27-.63,59.81,59.81,0,0,0-6.31-1.54,12.69,12.69,0,0,0-7.94,1.68c-2.37,1.41-4.53,3.69-7.3,3.63-1.8,0-3.4-1.11-5.13-1.62-4.32-1.27-8.91,1.08-12.31,4s-6.26,6.63-10.18,8.87a17.18,17.18,0,0,1-13.07,1.58,12.56,12.56,0,0,1-6.84-4.48,11.82,11.82,0,0,1-1.87-8.79,18.52,18.52,0,0,1,3.84-8.28c1.13-1.46,2.49-3,2.43-4.85-.05-1.63-1.21-3-1.91-4.46-1.63-3.46-.54-7.82,2.07-10.61S136.47,278,138.66,276.26Z"/><path class="cls-34" d="M126.42,302.68a11.79,11.79,0,0,0-.43,10.6c1.38,2.85,4.45,6.07,7.85,5.42a2,2,0,0,0,1.2-3c-1.19-1.63-3.14-2.23-4.33-3.9a7.06,7.06,0,0,1-.64-7c1.07-2.43-2.36-4.58-3.65-2.13Z"/><path class="cls-35" d="M159.86,297a17.91,17.91,0,0,0,3.82,5.89c1.43,1.43,4.41,3.83,6.48,2.25s-.79-3.78-2-4.64a13.45,13.45,0,0,1-4.57-5.05c-1-2-4.57-.59-3.69,1.55Z"/><path class="cls-36" d="M168,275.73a12.69,12.69,0,0,0-2.95,6.46c-.33,2.29.39,5.24,2.8,6.05a1.8,1.8,0,0,0,2-.82c.67-1.43.39-3.17.15-4.7a7,7,0,0,1,.85-4.78c1-1.74-1.49-3.86-2.87-2.21Z"/><path class="cls-36" d="M187.58,271.06c-.24,4.13,2.26,6.71,5.92,8.09,1.6.61,3.35.67,4.8,1.63s2.18,2.63,3.4,4a1.76,1.76,0,0,0,2.9-.77c1.2-3-1.1-6.91-3.41-8.78a15,15,0,0,0-4.78-2.46c-1.44-.48-3.42-.74-4-2.35a2.45,2.45,0,0,0-4.79.65Z"/><path class="cls-36" d="M210.31,287.42c.63,2.69-.35,5.08-1.7,7.38-1.07,1.84-2.93,2.53-4.13,4.19a1.14,1.14,0,0,0,.68,1.66c2.72.74,6.14-2,7.47-4.31,1.77-3,1-6.77-.43-9.71-.54-1.08-2.14-.3-1.89.79Z"/><path class="cls-35" d="M185.13,284.31a12.83,12.83,0,0,1,3.71,3.21c1.11,1.43,1.58,3.06,3.06,4.18a2.17,2.17,0,0,0,3.18-1.3c.7-4.25-4.13-8.47-7.44-10.38-2.78-1.6-5.26,2.67-2.51,4.29Z"/><path class="cls-34" d="M167.12,296c2.18,3.66,9.33,9.05,13.17,4.62a1.49,1.49,0,0,0-.29-2.29c-1.46-1.07-3.05-1.15-4.7-1.79a7.56,7.56,0,0,1-3.73-3.15c-1.73-2.82-6.15-.26-4.45,2.61Z"/><path class="cls-36" d="M152.12,275.14c-3.5-1.19-6.76-1.61-10.16.23-2.44,1.33-6.39,4.08-6,7.29.5,3.67,4.19,2.26,6.19.89a17,17,0,0,1,4.08-2c1.67-.58,3.46-1.61,5.22-1.81a2.36,2.36,0,0,0,.62-4.61Z"/><path class="cls-35" d="M138.65,287.26c-1.54,5.21-5.21,10.51-5.65,16-.28,3.49,1.14,7.95,4.89,8.78a2,2,0,0,0,2.42-2.42c-.52-1.78-1.17-3.16-1.05-5.08a22.6,22.6,0,0,1,1.58-5.5,28.51,28.51,0,0,0,1.31-11.28,1.79,1.79,0,0,0-3.5-.47Z"/><path class="cls-35" d="M148.24,300.6c-2.08,2.16-2.93,5.06-4.08,7.77a17.11,17.11,0,0,1-2.18,4.41c-1,1.26-2.34,2.09-3.25,3.45a1.56,1.56,0,0,0,1.33,2.33c3.37.3,5.77-3,7.5-5.47,2.09-3,1.88-7,4.07-9.88,1.49-2-1.72-4.35-3.39-2.61Z"/><path class="cls-19" d="M82.92,402c-1.28-9.8,12.37-18.28,20.1-21.52a85,85,0,0,1,15-4.26c5-1.09,11.68-.74,15.32-4.73a3.72,3.72,0,0,0,0-5.17c-4.88-4.61-14.4-3-20.49-2.06a57.71,57.71,0,0,0-19.64,7.06C82.09,377.71,72.37,389.47,77,402.82c1,3,6.36,2.76,5.89-.8Z"/><path class="cls-19" d="M132.06,366.78c2.49,4,6.85,4.47,11.23,5.2a109.3,109.3,0,0,0,13.38,1.49,160.39,160.39,0,0,0,29-1.07c8.36-1.17,17-3.41,24.16-8.1,6.22-4.09,14-10.94,10.41-19.11a4.36,4.36,0,0,0-3.8-2.18c-6.18-.31-11.42,6.18-16.52,9-6.29,3.46-13.52,4.88-20.6,5.58-8.19.81-16.36.93-24.57,1.09q-5.82.1-11.62.43c-3.83.2-7.67,0-10.45,3a3.94,3.94,0,0,0-.6,4.66Z"/><path class="cls-19" d="M223.85,355.1c4.79-.33,9.31-3.56,14-4.91a89.15,89.15,0,0,1,17.43-3.27,146.63,146.63,0,0,1,17.16,0c5.72.2,11.13,2.74,16-1.35a3.76,3.76,0,0,0,1-3.74c-2.09-6.72-10.06-7.41-16-8.57a66,66,0,0,0-20.86-.44,72.83,72.83,0,0,0-19.8,5.22c-4.92,2.14-12.07,5.68-13.08,11.5-.45,2.61,1.14,5.79,4.25,5.58Z"/><path class="cls-19" d="M297.84,345.58a14.94,14.94,0,0,0,14.73,5.17c5.17-1,11.61-5,12.8-10.47,1.24-5.67-4-6.42-7.72-3.72-5,3.64-9.49,8.13-15.83,3.87-3.36-2.25-6.09,2.46-4,5.15Z"/><path class="cls-19" d="M333,343.1c7.79,5.72,17,7.07,26.42,5.35,8-1.47,18.23-7.19,20-15.83,1-5-4.72-8.64-8.6-5-4.79,4.48-7.65,8.31-14.39,10-5.79,1.46-14.39,1.95-19.89-.59A3.52,3.52,0,0,0,333,343.1Z"/><path class="cls-19" d="M393.37,335.52c9.41.82,17.69.44,23.84-7.63,3.41-4.47-3.49-8.48-7.18-5.54-4.73,3.78-11.74,5.44-17.59,6.27-4.18.59-2.72,6.58.93,6.9Z"/><path class="cls-19" d="M502.69,299.1a21,21,0,0,0-17.53-6.61c-5.92.55-13.86,3.55-15.09,10.17a4.1,4.1,0,0,0,3.88,5.1c4.12.31,8.16-1.82,12.22-2.41a33.34,33.34,0,0,1,12.55.57,4.11,4.11,0,0,0,4-6.82Z"/><path class="cls-19" d="M427.2,320.18c7.63,4.29,15.75,3,23.34-.8,6.47-3.24,15.26-9.18,16.23-16.75.31-2.44-2.5-5.15-4.88-4.89-6.07.66-10.05,5.63-14.85,9a25.57,25.57,0,0,1-17.55,5c-4.61-.44-6,6.38-2.29,8.48Z"/><path class="cls-17" d="M181.44,398.39c20.84.39,36.86-20.25,57.58-22.54,12.87-1.43,25.49,4.48,38.43,4.53,10.93,0,21.51-4.1,32.43-4.49,13.25-.46,26.51,4.62,39.56,2.29,21-3.74,35.2-25.35,56.11-29.57,9.23-1.86,19.33-.2,27.7-4.51,7.35-3.77,12.39-11.73,20.4-13.73,6.76-1.69,13.75,1.36,20.71,1.59,8.25.28,16.38-6.32,21.31-12.94v79.81Z"/><path class="cls-37" d="M352.49,398.52c4.72.12,8.84-6.32,12-9.79,3.7-4,6.77-8.58,10.51-12.55s8.39-7.41,13.77-8.31c7.65-1.28,15.62,2.73,23.1.7,5.73-1.56,9.91-6.3,14.08-10.53s9.27-8.39,15.21-8.21c3.61.11,7.47,1.82,10.67.12,3.42-1.83,4.12-6.6,7.17-9,2.87-2.27,7-1.85,10.53-.93s7.2,2.23,10.75,1.36c7-1.72,9.62-12.74,16.82-13.08v70.22Z"/><path class="cls-25" d="M391.08,399a23,23,0,0,0,4.72-5q2.9-3.75,5.8-7.51c4.1-5.31,8.75-11,15.31-12.39,8.58-1.86,17.25,4.27,25.95,3a8.71,8.71,0,0,0,4.68-1.95,4.71,4.71,0,0,0,1.53-4.63c-.57-1.93-2.52-3-4-4.34s-2.73-3.66-1.48-5.23,3.71-.95,5.08.39,2.08,3.23,3.32,4.69,3.5,2.46,5.06,1.34c1.34-1,1.4-2.94,1.12-4.58a19.66,19.66,0,0,0-2.1-6.09,13.66,13.66,0,0,1-1.66-3.6,3.19,3.19,0,0,1,1.3-3.48,3.08,3.08,0,0,1,3.36.65A9.22,9.22,0,0,1,461,353.4l1.95,4.27c.66,1.45,1.78,3.16,3.35,2.91,2-.33,2-3.17,1.55-5.13l-1.89-7.58c-.59-2.37-.84-5.53,1.34-6.62,1.88-.93,4.17.64,5,2.57s.65,4.12.92,6.19,1.2,4.35,3.17,5.06,4.27-.55,5.53-2.27,1.84-3.84,2.72-5.79c2.21-4.86,7.29-8.95,12.54-8v60.07Z"/><path class="cls-38" d="M460.42,399.08c-.16-3.67-6.82-6.58-10.29-7.8-4.74-1.66-9.87-1.68-14.89-1.62-7.57.1-15.14.36-22.7.82-4,.24-8.14.49-11.7-1.26-5.7-2.8-8.49-10.08-14.55-12a4.13,4.13,0,0,0-3.24.1c-2.16,1.25-1.38,4.68.37,6.46s4.21,3,5.22,5.28a2.44,2.44,0,0,1-.07,2.49,2.37,2.37,0,0,1-1.87.76c-3,.08-5.37-2.49-7.53-4.62s-5.38-4.1-8.05-2.67a1.94,1.94,0,0,0-1.17,2.13,2.59,2.59,0,0,0,.75,1c1.14,1.11,2.22,2.75,1.55,4.2a3,3,0,0,1-2.95,1.47,8.82,8.82,0,0,1-3.29-1.19c-5-2.62-10.89-5.2-16.22-3.21-3.13,1.18-13.38,7.8-16.29,9.47Z"/><path class="cls-37" d="M179.26,398c1.54-4.59,3.62-9.62,8.07-11.53,5.08-2.17,10.74.71,15.85,2.81,4.93,2,10.75,3.34,15.46.84,5.85-3.09,8-11,14-13.75a2.85,2.85,0,0,1,1.77-.34c1.54.32,1.81,2.34,2,3.89s1.6,3.46,3,2.66a2.66,2.66,0,0,0,.88-1.1l2.71-5c.47-.87,1.23-1.88,2.19-1.66s1.18,1.23,1.22,2.1c.21,4.05-2.28,8.5-.11,11.93a2.67,2.67,0,0,0,1.7,1.32c1.29.23,2.38-.94,3.09-2,2.32-3.61,3.69-7.93,6.88-10.79a3.63,3.63,0,0,1,2.15-1.09c1.61-.09,2.78,1.68,2.8,3.3s-.72,3.12-1.18,4.66-.59,3.39.47,4.61c1.33,1.54,3.74,1.29,5.73.89a77.57,77.57,0,0,1,11.5-1.07c6.23-.33,13.35,6.15,14.41,9.87Z"/><path class="cls-39" d="M270.37,383.89a3.22,3.22,0,0,1-3.81-2.28c-.33-1.65,1.08-2.63,2.73-3s2.22.24,2.56,1.89S272,383.55,270.37,383.89Z"/><path class="cls-39" d="M199.15,388.23a2,2,0,0,1-2.44-1.38c-.21-1,.81-1.39,1.83-1.6s1,0,1.19,1S200.18,388,199.15,388.23Z"/><path class="cls-39" d="M277.29,377.53a2.32,2.32,0,0,1-2.75-1.59c-.23-1.16.87-1.67,2-1.91s1.26,0,1.5,1.19S278.46,377.29,277.29,377.53Z"/><path class="cls-39" d="M268,374.31a2.32,2.32,0,0,1-2.75-1.59c-.23-1.16.87-1.67,2-1.91s1.26,0,1.5,1.19S269.2,374.07,268,374.31Z"/><path class="cls-39" d="M187.09,395.11a3.19,3.19,0,0,1-2.33,3.75c-1.65.31-2.61-1.12-2.92-2.77s.84-1.37,2.49-1.68S186.78,393.46,187.09,395.11Z"/><path class="cls-39" d="M306.09,371.87a3.22,3.22,0,0,1-3.8-2.29c-.33-1.65,1.08-2.63,2.73-3s2.22.24,2.56,1.88S307.74,371.53,306.09,371.87Z"/><path class="cls-28" d="M192.51,390.35a3.21,3.21,0,0,1-3.8-2.29c-.34-1.65,1.08-2.63,2.73-3s2.21.23,2.55,1.88S194.16,390,192.51,390.35Z"/><path class="cls-28" d="M202.43,396.44a3.19,3.19,0,0,1-3.8-2.28c-.34-1.65,1.08-2.63,2.72-3s2.22.24,2.56,1.89S204.08,396.1,202.43,396.44Z"/><path class="cls-28" d="M282.67,371.87a3.22,3.22,0,0,1-3.8-2.29c-.33-1.65,1.08-2.63,2.73-3s2.22.24,2.56,1.88S284.32,371.53,282.67,371.87Z"/><path class="cls-40" d="M211.05,385.72a4.11,4.11,0,0,1-3.91,4.18c-2.19,0-3.27-2-3.27-4.18s1.08-3,3.27-3S211.05,383.53,211.05,385.72Z"/><path class="cls-40" d="M221.16,382.34a4.11,4.11,0,0,1-4.88-3c-.44-2.14,1.3-3.61,3.44-4s3.2.45,3.63,2.6S223.3,381.91,221.16,382.34Z"/><path class="cls-40" d="M290.86,382.34a4.11,4.11,0,0,1-4.88-3c-.44-2.14,1.3-3.61,3.44-4s3.19.45,3.63,2.6S293,381.91,290.86,382.34Z"/><path class="cls-40" d="M217.93,391.26a3.21,3.21,0,0,1-3.8-2.28c-.34-1.65,1.08-2.63,2.73-3s2.21.24,2.55,1.89S219.58,390.92,217.93,391.26Z"/><path class="cls-40" d="M291.4,371.91a3.22,3.22,0,0,1-3.81-2.28c-.33-1.65,1.08-2.63,2.73-3s2.22.24,2.56,1.89S293,371.57,291.4,371.91Z"/><path class="cls-40" d="M307,378.52c.19,1.67-2.45,2.43-4.12,2.63s-2.53-1.3-2.73-3,.43-2.19,2.1-2.39S306.75,376.85,307,378.52Z"/><path class="cls-40" d="M259.5,394.3c-2.14.44-3.75-1-4.18-3.15s.63-3.31,2.77-3.75,4.08.12,4.52,2.26A4,4,0,0,1,259.5,394.3Z"/><path class="cls-40" d="M276.39,389.26c-1.65.34-3.17-.33-3.5-2s.52-4.19,2.17-4.53,2.7,1.82,3,3.46S278,388.93,276.39,389.26Z"/></g></g></g></svg>