<?xml version="1.0" encoding="UTF-8"?><svg xmlns="http://www.w3.org/2000/svg" viewBox="0 0 150 159.76"><g id="a"/><g id="b"><g id="c"><path d="M112.21,18.49c-.49-2.82-.91-5.19-1.31-7.57-.9-5.32,2.21-9.92,7.29-10.79,4.84-.82,9.21,2.37,10.14,7.59,1.81,10.09,3.55,20.19,5.25,30.3,.91,5.43-2.26,9.78-7.65,10.7-10.1,1.73-20.21,3.45-30.31,5.17-5.05,.86-9.47-2.19-10.45-7.18-.91-4.62,2.12-9.13,7.01-10.17,3.7-.79,7.45-1.33,11.64-2.07-4.45-2.65-8.76-4.44-13.29-5.68C56.5,19.43,22.08,42.72,18.05,77.79c-3.56,30.98,18.58,59.69,49.09,63.68,31.65,4.14,59.59-16.35,65.2-47.83,1.01-5.64,5.1-8.9,10.13-8.06,5.34,.9,8.32,5.31,7.35,11.08-2.53,15.11-8.96,28.35-19.56,39.42-15.8,16.48-35.26,24.39-58.03,23.63C36.41,158.51,6.19,131.38,.87,95.99-4.92,57.46,18.6,21.38,56.03,11.55c18.74-4.92,36.81-2.9,54.09,5.9,.55,.28,1.1,.55,2.08,1.04Z"/></g></g></svg>