<?xml version="1.0" encoding="UTF-8"?><svg xmlns="http://www.w3.org/2000/svg" viewBox="0 0 204.57 201.8"><g id="a"/><g id="b"><g id="c"><path d="M0,77.37c.5-3.41,.88-6.83,1.52-10.21,2.86-15.14,9.56-28.4,19.89-39.81C33.54,13.96,48.45,5.27,66.17,1.75c20.74-4.12,40.42-1,58.61,9.95,20.68,12.45,33.77,30.59,38.77,54.2,4.27,20.11,1.13,39.28-8.87,57.28-1.92,3.45-1.98,3.42,.88,6.28,14.45,14.45,28.9,28.91,43.36,43.36,4.68,4.67,6.75,10.15,5.05,16.7-3.16,12.21-18.56,16.78-28.26,6.9-8.17-8.31-16.46-16.49-24.7-24.73-6.59-6.59-13.18-13.18-19.78-19.77-.42-.42-.86-.81-1.11-1.04-5.14,2.68-9.97,5.68-15.15,7.82-22.28,9.19-44.56,9.09-66.6-.88-16.55-7.49-29.15-19.38-38.03-35.17C4.67,112.55,1.31,101.68,.36,90.1c-.05-.65-.24-1.29-.36-1.94v-10.79Zm26.79,5.42c.11,30.85,25.27,55.89,56.02,55.76,30.79-.13,55.74-25.12,55.76-55.83,.02-30.73-25.24-55.96-55.94-55.86-30.89,.1-55.96,25.2-55.85,55.94Z"/></g></g></svg>