<?xml version="1.0" encoding="UTF-8"?><svg xmlns="http://www.w3.org/2000/svg" xmlns:xlink="http://www.w3.org/1999/xlink"
    viewBox="0 0 1086 1086">
    <defs>
        <style>
            .e {
                fill: #f20000;
            }

            .f {
                fill: #4ec0f4;
            }

            .g {
                fill: #ff3b3b;
            }

            .h {
                fill: url(#d);
            }

            .i {
                fill: #85d335;
            }

            .j {
                fill: #68b91c;
            }
        </style>
        <linearGradient id="d" x1="73.48" y1="1012.52" x2="1012.52" y2="73.48"
            gradientTransform="matrix(1, 0, 0, 1, 0, 0)" gradientUnits="userSpaceOnUse">
            <stop offset="0" stop-color="#feb001" />
            <stop offset="1" stop-color="#fed301" />
        </linearGradient>
    </defs>
    <g id="a" />
    <g id="b">
        <g id="c">
            <rect class="h" width="1086" height="1086" rx="250.88" ry="250.88" />
            <g>
                <path class="e"
                    d="M214.02,824.45c-34.88-35.28-56.52-77.19-63.64-126.47-.33-2.28,.44-5.32-2.45-6.82v-49.39c2.9-1.49,2.11-4.52,2.45-6.8,9.59-63.2,40.89-113.01,92.41-150.43,1.44-1.04,2.71-2.3,4.06-3.46,22.55-13.43,45.89-24.99,71.78-30.55,80.4-17.28,150.07,2.95,209.22,59.91-2.13,1.83-4.39,3.52-6.37,5.5-100.53,100.49-201.03,200.99-301.52,301.52-2.16,2.16-4.73,4.01-5.94,6.99Z" />
                <path class="j"
                    d="M938.07,740.54c-79.73,0-159.45,0-239.18-.01-2.57,0-5.13-.16-7.7-.24-.01-139.32-.03-278.64-.04-417.96,3.45,1.4,4.18,4.95,5.78,7.67,78.76,133.74,157.44,267.52,236.15,401.29,1.55,2.63,3.32,5.14,4.99,7.7v1.54Z" />
                <path class="f"
                    d="M527.85,510.43c-59.15-56.96-128.82-77.19-209.22-59.91-25.88,5.56-49.23,17.12-71.78,30.55-.05-92.58-.04-185.17-.3-277.75-.02-6.5,3.27-6.07,7.64-6.06,82.3,.05,164.59,.04,246.89,.04,43.72,0,87.44-.03,131.16,.02,11.04,.01,9.61-1.42,9.63,9.99,.11,65.32,.15,130.64,.22,195.97-.76,1.62-1.4,3.31-2.3,4.84-27.16,46.19-54.35,92.36-81.53,138.54-9.76-12.39-18.25-25.84-30.4-36.23Z" />
                <path class="i"
                    d="M558.25,546.66c27.18-46.18,54.37-92.35,81.53-138.54,.9-1.53,1.54-3.22,2.3-4.84,14.61-24.55,29.2-49.12,43.87-73.63,1.53-2.56,2.39-5.65,5.2-7.32,.01,139.32,.03,278.64,.04,417.96-37.02,.07-74.03,.14-111.05,.21,4.38-13.88,8.09-27.92,10.16-42.36,4.97-34.78,1.66-68.79-9.12-102.18-5.62-17.4-14.39-33.29-22.94-49.3Z" />
                <path class="g"
                    d="M558.25,546.66c8.55,16.01,17.32,31.89,22.94,49.3,10.78,33.39,14.09,67.4,9.12,102.18-2.06,14.44-5.77,28.48-10.16,42.36-11.65,31.53-28.8,59.6-52.77,83.29-36.31,35.87-79.77,57.33-130.52,63.27-61.38,7.19-116.47-8.69-165.16-46.63-6.25-4.87-11.8-10.64-17.68-15.99,1.21-2.98,3.78-4.83,5.94-6.99,100.49-100.53,200.99-201.03,301.52-301.52,1.98-1.98,4.24-3.68,6.37-5.5,12.14,10.39,20.64,23.84,30.4,36.23Z" />
            </g>
        </g>
    </g>
</svg>