<svg width="100px" preserveAspectRatio="x200Y200 meet" className="mt-10" xmlns="http://www.w3.org/2000/svg"
    height="100px" viewBox="0 0 316 316">
    <link rel="stylesheet" href="style8.css" type="text/css" />
    <defs>
        <linearGradient id="d" x1="0" y1="158" x2="316" y2="158" gradientTransform="matrix(1, 0, 0, 1, 0, 0)"
            gradientUnits="userSpaceOnUse">
            <stop className="start" offset="0" stop-color="#FD503A" />
            <stop offset="1" className="end" stop-color="#E91401" />
        </linearGradient>
    </defs>

    <rect fill="url(#d)" width="316" height="316" rx="50px" ry="90px" />

    <path className="primary"
        d="M198.95,98.04c0,.41-.01,.83-.04,1.23,10.64,3.53,18.27,13.1,18.27,24.36v8.6h9.11v34.41h-9.11v25.81c0,11.25-7.62,20.82-18.25,24.35,.03,.48,.04,.97,.04,1.45,0,14.25-12.23,25.81-27.32,25.81h-36.42c-15.09,0-27.32-11.55-27.32-25.81,0-.49,.01-.97,.04-1.45-10.63-3.53-18.25-13.1-18.25-24.35V123.63c0-11.25,7.61-20.81,18.24-24.35-.03-.55-.05-1.11-.05-1.67,.08-14.25,12.37-25.75,27.45-25.68l36.42,.17c15.09,.07,27.26,11.68,27.18,25.93Zm-72.85-.21h54.63c-.05-4.69-4.08-8.49-9.06-8.52l-36.42-.17c-5.03-.02-9.13,3.81-9.15,8.56v.13Zm65.63,17.38l-38.43-.18h-36.28c-5.03,0-9.11,3.85-9.11,8.6v68.82c0,4.75,4.07,8.6,9.09,8.6h72.87c5.02,0,9.09-3.86,9.09-8.6V123.63c0-4.15-3.11-7.61-7.24-8.42Zm-65.61,103.04c0,4.75,4.08,8.6,9.11,8.6h36.42c5.03,0,9.11-3.85,9.11-8.6h-54.64Z" />
    <circle class="secondary" cx="154.22" cy="158" r="19.28" />
</svg>